<svg width="14" height="20" viewBox="0 0 14 20" fill="none" xmlns="http://www.w3.org/2000/svg">
<g clip-path="url(#clip0_96_1446)">
<path d="M13.3795 11.0669C13.3795 11.0669 13.7788 12.2451 12.1814 13.5089C11.1954 14.289 9.11437 15.3692 7.8233 12.6482C6.42062 13.494 5.137 12.389 5.137 12.389C5.137 12.389 3.78765 12.2451 3.43667 12.2451C1.26506 14.129 1.75742 17.4218 2.9195 19.0067C6.63146 20.2122 11.697 20.5152 12.1814 19.9334C17.3637 21.2486 15.1306 11.589 15.1306 11.589L13.3795 11.0669Z" fill="#CAA77A"/>
<path d="M7.18584 7.66992C7.18584 7.66992 7.37311 12.2996 7.82331 12.6481C8.27351 12.9966 5.2077 13.5039 5.075 12.1942C5.11592 10.4939 7.18584 7.66992 7.18584 7.66992Z" fill="#B6B1AE"/>
<path d="M13.3088 11.228C13.3088 11.228 13.6808 12.3268 11.9768 13.6786C10.2727 15.0305 8.24994 14.0271 7.88408 12.839C7.51822 11.6509 6.8609 8.7215 7.22925 7.82111C7.59759 6.92071 4.99686 9.80545 5.14073 12.3888L3.42179 12.0812C3.42179 12.0812 0.281573 15.0119 2.92571 19.0066C2.92571 19.0066 8.23134 20.4758 13.3088 19.7999" stroke="#2D1F04" stroke-linecap="round" stroke-linejoin="round"/>
<path d="M5.13452 12.2449C5.13452 12.2449 5.13452 13.5483 7.88283 12.8389" stroke="#2D1F04" stroke-width="2.43702" stroke-linecap="round" stroke-linejoin="round"/>
<g style="mix-blend-mode:multiply" opacity="0.23">
<path d="M6.57983 18.2666C6.57983 18.2666 11.2407 18.6946 13.7062 18.3319C15.1248 18.1233 13.3955 19.3986 13.4577 19.7905C9.22718 20.5398 3.60001 19.0372 3.60001 19.0372L6.57983 18.2666Z" fill="#3F2719"/>
</g>
<path d="M4.83067 15.1648V15.6609L5.67526 16.9284C5.76703 17.066 5.92206 17.1491 6.08825 17.1491H7.54178C7.70797 17.1491 7.863 17.066 7.95477 16.9284L8.79936 15.6609V15.1648H4.83067Z" fill="url(#paint0_radial_96_1446)"/>
<path d="M8.79936 12.4983H4.83067V15.6608H8.79936V12.4983Z" fill="url(#paint1_linear_96_1446)"/>
<g opacity="0.2">
<path d="M8.42729 12.8704V15.1648V15.548L7.64472 16.7212C7.62115 16.7559 7.58271 16.777 7.54178 16.777H6.08825C6.04608 16.777 6.00764 16.7559 5.98531 16.7212L5.20274 15.548V15.1648V12.8704H8.42729ZM8.79936 12.4983H4.83067V15.1648V15.6608L5.67526 16.9283C5.76703 17.066 5.92206 17.1491 6.08825 17.1491H7.54178C7.70797 17.1491 7.863 17.066 7.95477 16.9283L8.79936 15.6608V15.1648V12.4983Z" fill="#424242"/>
</g>
<path d="M8.77332 13.6765L4.94354 14.4504C4.80587 14.4789 4.66945 14.3884 4.64093 14.2495L4.62604 14.1726C4.59752 14.0349 4.68805 13.8985 4.82696 13.87L8.65674 13.0961C8.7944 13.0675 8.93082 13.1581 8.95935 13.297L8.97423 13.3739C9.00152 13.5128 8.91222 13.6492 8.77332 13.6765Z" fill="#BBDEFB"/>
<path d="M8.77332 14.8821L4.94354 15.656C4.80587 15.6845 4.66945 15.5939 4.64093 15.455L4.62604 15.3781C4.59752 15.2405 4.68805 15.1041 4.82696 15.0755L8.65674 14.3016C8.7944 14.2731 8.93082 14.3637 8.95935 14.5026L8.97423 14.5794C9.00152 14.7184 8.91222 14.8548 8.77332 14.8821Z" fill="#90CAF9"/>
<path d="M11.2798 6.73137C11.2798 4.26583 9.28056 2.2666 6.81502 2.2666C4.34947 2.2666 2.35025 4.26583 2.35025 6.73137C2.35025 7.8178 2.7682 8.78764 3.38211 9.58634C3.9464 10.3205 4.2577 11.092 4.18949 11.6513C4.02454 13.0019 4.8406 13.1805 4.8406 13.1805H6.81502H8.78944C8.78944 13.1805 9.6055 13.0019 9.44055 11.6513C9.37234 11.092 9.68363 10.3205 10.2479 9.58634C10.8618 8.78764 11.2798 7.8178 11.2798 6.73137Z" fill="url(#paint2_radial_96_1446)"/>
<path d="M7.53187 13.4335C7.5269 13.4335 7.52194 13.4335 7.51574 13.4335C7.41281 13.4248 7.33715 13.3343 7.34583 13.2326L7.4066 12.507C7.60504 10.9816 8.15321 9.16094 8.47939 8.18986C8.29584 8.10552 8.10484 7.95049 7.95974 7.75826C7.863 7.62928 7.79355 7.49534 7.75386 7.36015C7.43513 7.33659 7.1598 7.22745 6.94028 7.0749C6.73317 7.26094 6.43676 7.4172 6.01508 7.45813C5.90967 7.46805 5.81045 7.47301 5.71743 7.47053C5.64798 7.64168 5.55373 7.83019 5.42598 8.03979C5.35033 8.16505 5.24367 8.26179 5.11469 8.32628L6.51737 13.0775C6.5459 13.1755 6.49009 13.2797 6.39211 13.3082C6.29413 13.3367 6.18995 13.2809 6.16143 13.183L4.75255 8.41433C4.7203 8.41557 4.68558 8.41557 4.65209 8.41309C4.25026 8.39077 3.84471 8.15513 3.70953 7.86368C3.62643 7.68509 3.64628 7.5003 3.7641 7.34527C3.85835 7.22001 3.9985 7.14064 4.15849 7.11831C4.32095 7.09723 4.48838 7.14064 4.61612 7.23861C4.89517 7.45441 4.96958 7.79671 4.98323 7.87856L5.00679 7.95918C5.04524 7.93065 5.07996 7.89468 5.10849 7.84756C5.18166 7.72726 5.26476 7.57719 5.33545 7.41844C5.14569 7.36511 4.99439 7.27334 4.88401 7.14064C4.70666 6.92856 4.67069 6.62223 4.78851 6.3407C4.8406 6.21792 4.97083 6.05917 5.1705 6.01948C5.33049 5.98724 5.4942 6.04429 5.63062 6.17823C5.80177 6.3469 5.93571 6.62967 5.83525 7.09723C5.88114 7.09599 5.92951 7.09227 5.97912 7.08731C6.28297 7.05754 6.50249 6.9546 6.66 6.82562C6.55334 6.70532 6.47396 6.57758 6.42311 6.45232C6.30033 6.14722 6.33878 5.84957 6.52729 5.6561C6.68232 5.49611 6.8299 5.47627 6.9254 5.48743C7.11763 5.50975 7.23545 5.6623 7.28878 5.7516C7.39048 5.92151 7.42769 6.21916 7.3694 6.40147C7.33839 6.4982 7.28258 6.64083 7.18337 6.78965C7.33219 6.88515 7.51202 6.95584 7.7179 6.97941C7.72534 6.91368 7.74022 6.84919 7.76131 6.78469C7.92873 6.29977 8.20902 6.17575 8.36157 6.14598C8.53272 6.11126 8.70635 6.15839 8.80184 6.26628C8.91594 6.39403 8.97671 6.66191 8.86262 6.90499C8.77952 7.08483 8.58605 7.28946 8.14453 7.34651C8.17802 7.42216 8.22018 7.48541 8.25491 7.5313C8.36529 7.67765 8.49551 7.77686 8.59845 7.83267C8.63193 7.73842 8.65922 7.66276 8.6803 7.60572C8.88246 7.07366 9.28305 6.8405 9.5745 6.88639C9.75185 6.91368 9.9478 7.0563 9.96641 7.37628C9.97633 7.55239 9.91804 7.71609 9.79774 7.85128C9.52861 8.15265 9.03748 8.23078 8.84649 8.25063C8.529 9.18947 7.9709 11.0225 7.77247 12.5442L7.7117 13.2611C7.70798 13.3603 7.62736 13.4335 7.53187 13.4335ZM4.24158 7.48417C4.23042 7.48417 4.21926 7.48541 4.20809 7.48665C4.14732 7.49534 4.09523 7.52386 4.06175 7.56851C4.02702 7.6144 4.0233 7.65408 4.04811 7.70617C4.11508 7.8488 4.3656 8.01251 4.64217 8.03855L4.62232 7.97158C4.61984 7.96166 4.61736 7.95298 4.61612 7.94305C4.61612 7.94181 4.57644 7.67765 4.38792 7.53254C4.347 7.50154 4.29491 7.48417 4.24158 7.48417ZM9.50133 7.25473C9.37482 7.25473 9.15531 7.41348 9.03128 7.73966C9.01888 7.7719 9.00524 7.81035 8.98912 7.855C9.18631 7.81407 9.40831 7.73346 9.52489 7.60448C9.5807 7.54246 9.60426 7.47797 9.5993 7.39984C9.59434 7.31178 9.5683 7.26342 9.52241 7.25722C9.51497 7.25598 9.50877 7.25473 9.50133 7.25473ZM5.25855 6.38286C5.25359 6.38286 5.24863 6.38286 5.24367 6.38411C5.19654 6.39403 5.14942 6.44364 5.13205 6.48456C5.06756 6.63711 5.08244 6.7971 5.1705 6.90127C5.23499 6.97817 5.33297 7.03398 5.46195 7.06498C5.52396 6.8219 5.519 6.58998 5.37017 6.44364C5.32801 6.40271 5.2908 6.38286 5.25855 6.38286ZM8.47691 6.50937C8.45955 6.50937 8.43722 6.51185 8.41242 6.52053C8.29336 6.55897 8.18794 6.69788 8.11477 6.90996C8.10609 6.93352 8.09988 6.95708 8.09616 6.98065C8.31692 6.95336 8.46575 6.87771 8.52528 6.75865C8.58233 6.64703 8.54264 6.53665 8.52776 6.51681C8.52404 6.51557 8.50543 6.50937 8.47691 6.50937ZM6.87951 5.85825C6.86835 5.85825 6.83735 5.87066 6.7927 5.91654C6.67364 6.03933 6.73441 6.23528 6.76665 6.31465C6.79766 6.39031 6.84355 6.4672 6.90184 6.54161C6.95517 6.45232 6.98989 6.3655 7.01346 6.29233C7.0395 6.20923 7.01594 6.02444 6.96757 5.94507C6.93408 5.88926 6.89688 5.86074 6.88075 5.85949C6.88075 5.85825 6.88075 5.85825 6.87951 5.85825Z" fill="#FFD54F"/>
<path d="M7.53187 13.4335C7.5269 13.4335 7.52194 13.4335 7.51574 13.4335C7.41281 13.4248 7.33715 13.3343 7.34583 13.2326L7.4066 12.507C7.60504 10.9816 8.15321 9.16094 8.47939 8.18986C8.29584 8.10552 8.10484 7.95049 7.95974 7.75826C7.863 7.62928 7.79355 7.49534 7.75386 7.36015C7.43513 7.33659 7.1598 7.22745 6.94028 7.0749C6.73317 7.26094 6.43676 7.4172 6.01508 7.45813C5.90967 7.46805 5.81045 7.47301 5.71743 7.47053C5.64798 7.64168 5.55373 7.83019 5.42598 8.03979C5.35033 8.16505 5.24367 8.26179 5.11469 8.32628L6.51737 13.0775C6.5459 13.1755 6.49009 13.2797 6.39211 13.3082C6.29413 13.3367 6.18995 13.2809 6.16143 13.183L4.75255 8.41433C4.7203 8.41557 4.68558 8.41557 4.65209 8.41309C4.25026 8.39077 3.84471 8.15513 3.70953 7.86368C3.62643 7.68509 3.64628 7.5003 3.7641 7.34527C3.85835 7.22001 3.9985 7.14064 4.15849 7.11831C4.32095 7.09723 4.48838 7.14064 4.61612 7.23861C4.89517 7.45441 4.96958 7.79671 4.98323 7.87856L5.00679 7.95918C5.04524 7.93065 5.07996 7.89468 5.10849 7.84756C5.18166 7.72726 5.26476 7.57719 5.33545 7.41844C5.14569 7.36511 4.99439 7.27334 4.88401 7.14064C4.70666 6.92856 4.67069 6.62223 4.78851 6.3407C4.8406 6.21792 4.97083 6.05917 5.1705 6.01948C5.33049 5.98724 5.4942 6.04429 5.63062 6.17823C5.80177 6.3469 5.93571 6.62967 5.83525 7.09723C5.88114 7.09599 5.92951 7.09227 5.97912 7.08731C6.28297 7.05754 6.50249 6.9546 6.66 6.82562C6.55334 6.70532 6.47396 6.57758 6.42311 6.45232C6.30033 6.14722 6.33878 5.84957 6.52729 5.6561C6.68232 5.49611 6.8299 5.47627 6.9254 5.48743C7.11763 5.50975 7.23545 5.6623 7.28878 5.7516C7.39048 5.92151 7.42769 6.21916 7.3694 6.40147C7.33839 6.4982 7.28258 6.64083 7.18337 6.78965C7.33219 6.88515 7.51202 6.95584 7.7179 6.97941C7.72534 6.91368 7.74022 6.84919 7.76131 6.78469C7.92873 6.29977 8.20902 6.17575 8.36157 6.14598C8.53272 6.11126 8.70635 6.15839 8.80184 6.26628C8.91594 6.39403 8.97671 6.66191 8.86262 6.90499C8.77952 7.08483 8.58605 7.28946 8.14453 7.34651C8.17802 7.42216 8.22018 7.48541 8.25491 7.5313C8.36529 7.67765 8.49551 7.77686 8.59845 7.83267C8.63193 7.73842 8.65922 7.66276 8.6803 7.60572C8.88246 7.07366 9.28305 6.8405 9.5745 6.88639C9.75185 6.91368 9.9478 7.0563 9.96641 7.37628C9.97633 7.55239 9.91804 7.71609 9.79774 7.85128C9.52861 8.15265 9.03748 8.23078 8.84649 8.25063C8.529 9.18947 7.9709 11.0225 7.77247 12.5442L7.7117 13.2611C7.70798 13.3603 7.62736 13.4335 7.53187 13.4335ZM4.24158 7.48417C4.23042 7.48417 4.21926 7.48541 4.20809 7.48665C4.14732 7.49534 4.09523 7.52386 4.06175 7.56851C4.02702 7.6144 4.0233 7.65408 4.04811 7.70617C4.11508 7.8488 4.3656 8.01251 4.64217 8.03855L4.62232 7.97158C4.61984 7.96166 4.61736 7.95298 4.61612 7.94305C4.61612 7.94181 4.57644 7.67765 4.38792 7.53254C4.347 7.50154 4.29491 7.48417 4.24158 7.48417ZM9.50133 7.25473C9.37482 7.25473 9.15531 7.41348 9.03128 7.73966C9.01888 7.7719 9.00524 7.81035 8.98912 7.855C9.18631 7.81407 9.40831 7.73346 9.52489 7.60448C9.5807 7.54246 9.60426 7.47797 9.5993 7.39984C9.59434 7.31178 9.5683 7.26342 9.52241 7.25722C9.51497 7.25598 9.50877 7.25473 9.50133 7.25473ZM5.25855 6.38286C5.25359 6.38286 5.24863 6.38286 5.24367 6.38411C5.19654 6.39403 5.14942 6.44364 5.13205 6.48456C5.06756 6.63711 5.08244 6.7971 5.1705 6.90127C5.23499 6.97817 5.33297 7.03398 5.46195 7.06498C5.52396 6.8219 5.519 6.58998 5.37017 6.44364C5.32801 6.40271 5.2908 6.38286 5.25855 6.38286ZM8.47691 6.50937C8.45955 6.50937 8.43722 6.51185 8.41242 6.52053C8.29336 6.55897 8.18794 6.69788 8.11477 6.90996C8.10609 6.93352 8.09988 6.95708 8.09616 6.98065C8.31692 6.95336 8.46575 6.87771 8.52528 6.75865C8.58233 6.64703 8.54264 6.53665 8.52776 6.51681C8.52404 6.51557 8.50543 6.50937 8.47691 6.50937ZM6.87951 5.85825C6.86835 5.85825 6.83735 5.87066 6.7927 5.91654C6.67364 6.03933 6.73441 6.23528 6.76665 6.31465C6.79766 6.39031 6.84355 6.4672 6.90184 6.54161C6.95517 6.45232 6.98989 6.3655 7.01346 6.29233C7.0395 6.20923 7.01594 6.02444 6.96757 5.94507C6.93408 5.88926 6.89688 5.86074 6.88075 5.85949C6.88075 5.85825 6.88075 5.85825 6.87951 5.85825Z" fill="#FDD835"/>
<g opacity="0.2">
<path d="M6.88075 5.48608C6.89687 5.48608 6.91051 5.48732 6.9254 5.48856C7.11763 5.51088 7.23545 5.66343 7.28878 5.75273C7.39048 5.92264 7.42768 6.22029 7.36939 6.4026C7.33839 6.49933 7.28258 6.64196 7.18336 6.79078C7.33219 6.88628 7.51202 6.95697 7.71789 6.98054C7.72533 6.91481 7.74022 6.85031 7.7613 6.78582C7.92873 6.3009 8.20902 6.17688 8.36156 6.14711C8.39877 6.13967 8.43598 6.13595 8.47318 6.13595C8.60464 6.13595 8.72743 6.18308 8.80184 6.26741C8.91594 6.39516 8.97671 6.66304 8.86261 6.90612C8.77951 7.08596 8.58604 7.29059 8.14453 7.34764C8.17801 7.42329 8.22018 7.48654 8.2549 7.53243C8.36528 7.67878 8.49551 7.77799 8.59844 7.8338C8.63193 7.73955 8.65921 7.6639 8.6803 7.60685C8.86509 7.1182 9.21855 6.88132 9.50132 6.88132C9.52612 6.88132 9.55093 6.88256 9.57449 6.88628C9.75184 6.91357 9.9478 7.05619 9.9664 7.37617C9.97632 7.55228 9.91803 7.71598 9.79773 7.85117C9.5286 8.15254 9.03748 8.23067 8.84649 8.25052C8.52899 9.18936 7.9709 11.0224 7.77246 12.5441L7.71169 13.261C7.70301 13.3577 7.6224 13.4309 7.5269 13.4309C7.52194 13.4309 7.51698 13.4309 7.51078 13.4309C7.40784 13.4222 7.33219 13.3317 7.34087 13.23L7.40164 12.5044C7.60007 10.979 8.14825 9.15835 8.47442 8.18727C8.29087 8.10293 8.09988 7.9479 7.95477 7.75567C7.85804 7.62669 7.78858 7.49275 7.7489 7.35756C7.43512 7.33648 7.1598 7.22734 6.94028 7.07479C6.73316 7.26083 6.43675 7.41709 6.01508 7.45802C5.92826 7.4667 5.84641 7.47042 5.76828 7.47042C5.75091 7.47042 5.73479 7.47042 5.71743 7.47042C5.64798 7.64157 5.55372 7.83008 5.42598 8.03968C5.35032 8.16494 5.24367 8.26168 5.11468 8.32617L6.51737 13.0774C6.54589 13.1754 6.49008 13.2796 6.3921 13.3081C6.37474 13.3131 6.35738 13.3155 6.33877 13.3155C6.25816 13.3155 6.18375 13.2635 6.16018 13.1816L4.75254 8.41422C4.7389 8.41422 4.72526 8.41546 4.71161 8.41546C4.69177 8.41546 4.67193 8.41546 4.65084 8.41422C4.24902 8.3919 3.84347 8.15626 3.70828 7.86481C3.62519 7.68622 3.64503 7.50143 3.76285 7.3464C3.85711 7.22114 3.99725 7.14177 4.15724 7.11944C4.18452 7.11572 4.21181 7.11448 4.23909 7.11448C4.37428 7.11448 4.50822 7.15913 4.61488 7.24098C4.89393 7.45678 4.96834 7.79908 4.98198 7.88093L5.00555 7.96155C5.04399 7.93302 5.07872 7.89706 5.10724 7.84993C5.18042 7.72963 5.26351 7.57956 5.3342 7.42081C5.14445 7.36748 4.99314 7.27571 4.88276 7.14301C4.70541 6.93093 4.66945 6.6246 4.78727 6.34307C4.83936 6.22029 4.96958 6.06154 5.16925 6.02185C5.19902 6.01565 5.22754 6.01317 5.25731 6.01317C5.38877 6.01317 5.51775 6.07146 5.62937 6.1806C5.80052 6.34927 5.93447 6.63204 5.83401 7.0996C5.8799 7.09836 5.92826 7.09464 5.97787 7.08968C6.28173 7.05991 6.50124 6.95697 6.65875 6.82799C6.55209 6.70769 6.47272 6.57995 6.42187 6.45469C6.29909 6.14959 6.33753 5.85194 6.52605 5.65847C6.65875 5.51957 6.78649 5.48608 6.88075 5.48608ZM6.90307 6.5415C6.9564 6.45221 6.99113 6.36539 7.01469 6.29222C7.04074 6.20912 7.01717 6.02433 6.9688 5.94496C6.93532 5.88915 6.89811 5.86062 6.88199 5.85938H6.88075C6.86959 5.85938 6.83858 5.87179 6.79393 5.91767C6.67487 6.04046 6.73564 6.23641 6.76789 6.31578C6.79765 6.38896 6.84354 6.46709 6.90307 6.5415ZM5.46194 7.06487C5.52395 6.82179 5.51899 6.58987 5.37017 6.44352C5.32924 6.4026 5.29203 6.38275 5.25855 6.38275C5.25359 6.38275 5.24863 6.38275 5.24367 6.38399C5.19654 6.39392 5.14941 6.44352 5.13205 6.48445C5.06756 6.637 5.08244 6.79699 5.17049 6.90116C5.23499 6.97806 5.33296 7.03387 5.46194 7.06487ZM8.09492 6.98054C8.31567 6.95325 8.4645 6.8776 8.52403 6.75854C8.58108 6.64692 8.54139 6.53654 8.52651 6.5167C8.52527 6.5167 8.50667 6.5105 8.47814 6.5105C8.46078 6.5105 8.43846 6.51298 8.41365 6.52166C8.29459 6.5601 8.18917 6.69901 8.116 6.91109C8.10484 6.93341 8.09864 6.95697 8.09492 6.98054ZM8.98787 7.85613C9.18506 7.8152 9.40706 7.73459 9.52364 7.6056C9.57945 7.54359 9.60302 7.4791 9.59806 7.40097C9.5931 7.31291 9.56705 7.26455 9.52116 7.25835C9.51496 7.2571 9.50752 7.25711 9.50132 7.25711C9.37482 7.25711 9.1553 7.41585 9.03128 7.74203C9.01888 7.77303 9.00523 7.81148 8.98787 7.85613ZM4.64216 8.03968L4.62232 7.97271C4.61984 7.96279 4.61736 7.9541 4.61612 7.94418C4.61612 7.94294 4.57643 7.67878 4.38792 7.53367C4.34699 7.50143 4.2949 7.4853 4.24033 7.4853C4.22917 7.4853 4.21801 7.48654 4.20685 7.48778C4.14608 7.49647 4.09399 7.52499 4.0605 7.56964C4.02578 7.61553 4.02206 7.65521 4.04686 7.7073C4.11383 7.84993 4.3656 8.01363 4.64216 8.03968ZM6.88075 5.23804C6.7468 5.23804 6.54589 5.2802 6.3487 5.4836C6.08949 5.75025 6.0312 6.14711 6.19243 6.54522C6.22095 6.61591 6.25692 6.68661 6.29909 6.75482C6.24328 6.77962 6.18251 6.79823 6.11802 6.81311C6.12422 6.41128 5.96175 6.15456 5.80548 6.00077C5.64674 5.8445 5.45698 5.76141 5.25855 5.76141C5.21266 5.76141 5.16677 5.76637 5.12213 5.77505C4.82819 5.83458 4.63968 6.05534 4.56031 6.24261C4.46853 6.46089 4.44993 6.69157 4.4983 6.9024C4.4152 6.87636 4.32839 6.86396 4.24033 6.86396C4.20189 6.86396 4.16344 6.86644 4.12623 6.8714C3.90052 6.90116 3.70208 7.0165 3.5669 7.19385C3.39327 7.42329 3.3635 7.70482 3.48504 7.96651C3.64999 8.32245 4.09647 8.60274 4.56527 8.65359L5.9233 13.2511C5.97787 13.4346 6.14902 13.5624 6.34001 13.5624C6.38094 13.5624 6.42311 13.5561 6.4628 13.545C6.57442 13.5127 6.66619 13.4383 6.72076 13.3366C6.77657 13.2349 6.78897 13.1171 6.75549 13.0067L5.40489 8.43283C5.49667 8.35965 5.57604 8.26912 5.63805 8.16742C5.73231 8.01115 5.81416 7.85985 5.88114 7.71598C5.93198 7.7135 5.98531 7.70978 6.03864 7.70482C6.39334 7.6701 6.70216 7.56096 6.95888 7.37741C7.14987 7.48282 7.35699 7.55352 7.57403 7.58824C7.6224 7.69738 7.68441 7.80404 7.76254 7.90698C7.87912 8.062 8.02547 8.19967 8.18049 8.30385C7.9002 9.16207 7.36195 10.9343 7.16104 12.4747L7.1598 12.4796V12.4858L7.09903 13.2114C7.07918 13.4495 7.25653 13.6603 7.49465 13.6802C7.50954 13.6814 7.5207 13.6814 7.53186 13.6814C7.7551 13.6814 7.94485 13.5065 7.96469 13.2845L8.02422 12.5727C8.22514 11.0323 8.8006 9.19308 9.03748 8.47748C9.30661 8.43159 9.72332 8.31377 9.98624 8.0186C10.1512 7.8338 10.2318 7.60684 10.2169 7.36376C10.1896 6.8962 9.87586 6.68413 9.61542 6.6432C9.57945 6.63824 9.54225 6.63452 9.50504 6.63452C9.39962 6.63452 9.28552 6.65808 9.17018 6.70769C9.19003 6.46461 9.10941 6.23765 8.98911 6.10247C8.86757 5.96728 8.6803 5.88915 8.47442 5.88915C8.42109 5.88915 8.36652 5.89411 8.31319 5.90527C8.11104 5.9462 7.7427 6.10247 7.5331 6.68785C7.53062 6.68661 7.5269 6.68537 7.52442 6.68537C7.56163 6.60599 7.58643 6.53406 7.60503 6.47825C7.68317 6.22897 7.63728 5.85566 7.50085 5.62622C7.42396 5.49848 7.25157 5.27772 6.95392 5.243C6.92912 5.23928 6.90431 5.23804 6.88075 5.23804Z" fill="#FFFF8D"/>
</g>
<g opacity="0.2">
<path d="M6.81502 2.63867C9.07221 2.63867 10.9077 4.47418 10.9077 6.73137C10.9077 7.63797 10.5778 8.54704 9.95276 9.35938C9.31281 10.1916 8.99159 11.0436 9.07097 11.6959C9.17515 12.543 8.84153 12.76 8.72991 12.8084H6.81502H4.90013C4.78851 12.76 4.45489 12.5443 4.55907 11.6959C4.63844 11.0436 4.31723 10.1916 3.67728 9.35938C3.05221 8.54704 2.72231 7.63797 2.72231 6.73137C2.72231 4.47418 4.55783 2.63867 6.81502 2.63867ZM6.81502 2.2666C4.34947 2.2666 2.35025 4.26583 2.35025 6.73137C2.35025 7.8178 2.7682 8.78764 3.38211 9.58634C3.9464 10.3205 4.2577 11.092 4.18949 11.6513C4.02454 13.0019 4.8406 13.1805 4.8406 13.1805H6.81502H8.78944C8.78944 13.1805 9.6055 13.0019 9.44055 11.6513C9.37234 11.092 9.68363 10.3205 10.2479 9.58634C10.8618 8.78764 11.2798 7.8178 11.2798 6.73137C11.2798 4.26583 9.28056 2.2666 6.81502 2.2666Z" fill="#424242"/>
</g>
<path d="M9.35746 16.3191C8.67906 17.2828 5.075 18.7673 3.83107 18.8975C3.33498 18.2563 2.66899 14.8259 4.43009 13.2595C5.27964 14.3745 7.9523 15.8082 9.35746 16.3191Z" fill="#B6B1AE"/>
<path d="M3.43668 12.2449C3.43668 12.2449 7.14368 16.0337 9.08957 16.1156C11.0355 16.1974 3.85711 19.4183 2.91951 19.0065" stroke="#2D1F04" stroke-linecap="round" stroke-linejoin="round"/>
<path d="M3.41808 15.8701C3.70332 16.0338 6.17135 17.2827 9.42195 16.3005" stroke="#2D1F04" stroke-linecap="round" stroke-linejoin="round"/>
<path d="M4.27629 13.2595C4.27629 13.2595 2.39241 16.0128 3.85462 18.9447" stroke="#2D1F04" stroke-linecap="round" stroke-linejoin="round"/>
<line x1="6.90584" y1="0.82602" x2="6.90584" y2="1.62284" stroke="#FFF497" stroke-width="0.341493" stroke-linecap="round"/>
<line x1="8.8744" y1="1.22185" x2="8.55375" y2="1.9513" stroke="#FFF497" stroke-width="0.341493" stroke-linecap="round"/>
<line x1="10.3819" y1="2.14866" x2="9.82838" y2="2.72184" stroke="#FFF497" stroke-width="0.341493" stroke-linecap="round"/>
<line x1="11.4035" y1="3.37308" x2="10.6424" y2="3.60906" stroke="#FFF497" stroke-width="0.341493" stroke-linecap="round"/>
<line x1="0.170747" y1="-0.170747" x2="0.967564" y2="-0.170747" transform="matrix(0.312338 0.949971 0.949971 -0.312338 5 1)" stroke="#FFF497" stroke-width="0.341493" stroke-linecap="round"/>
<path d="M3.23745 2.2209L3.78924 2.79574" stroke="#FFF497" stroke-width="0.341493" stroke-linecap="round"/>
<line x1="2.20249" y1="3.86845" x2="2.98193" y2="4.03397" stroke="#FFF497" stroke-width="0.341493" stroke-linecap="round"/>
</g>
<defs>
<radialGradient id="paint0_radial_96_1446" cx="0" cy="0" r="1" gradientUnits="userSpaceOnUse" gradientTransform="translate(6.83073 15.6299) rotate(90) scale(1.66139 2.94548)">
<stop stop-color="#1E88E5"/>
<stop offset="0.9869" stop-color="#0D47A1"/>
</radialGradient>
<linearGradient id="paint1_linear_96_1446" x1="6.81502" y1="12.5913" x2="6.81502" y2="15.8293" gradientUnits="userSpaceOnUse">
<stop stop-color="#90CAF9"/>
<stop offset="0.1981" stop-color="#88C6F9"/>
<stop offset="0.5085" stop-color="#72BCF7"/>
<stop offset="0.8905" stop-color="#4DAAF6"/>
<stop offset="0.9957" stop-color="#42A5F5"/>
</linearGradient>
<radialGradient id="paint2_radial_96_1446" cx="0" cy="0" r="1" gradientUnits="userSpaceOnUse" gradientTransform="translate(6.86153 2.40613) scale(11.3019)">
<stop stop-color="#FFF59D"/>
<stop offset="0.1485" stop-color="#FFF599"/>
<stop offset="0.3111" stop-color="#FFF38B"/>
<stop offset="0.4772" stop-color="#FFF176"/>
<stop offset="0.7791" stop-color="#FFED51"/>
<stop offset="0.9957" stop-color="#FFEB3B"/>
</radialGradient>
<clipPath id="clip0_96_1446">
<rect width="13.3333" height="20" fill="white"/>
</clipPath>
</defs>
</svg>
