<svg xmlns="http://www.w3.org/2000/svg" viewBox="0 0 454.73 321.6"><g style="isolation:isolate"><g id="Слой_1" data-name="Слой 1"><path d="M454.45,124.34c-1.3-14-7.16-21.84-12.63-27.8-.25-3.76.85-8.53,1.58-11.69A106.82,106.82,0,0,1,447,74.73c2.37-6,5-12.77,1.25-20.16l-.07-.14c-.21-.41-.43-.81-.69-1.23a14.45,14.45,0,0,0-2.94-3.35c-.43-.36-.8-.62-1.06-.8l-.11-.07a14.1,14.1,0,0,0-1.25-.76l-.71-.35a15.71,15.71,0,0,0-6.75-1.46c-9.29,0-20.22,7.84-27,15.71a48.91,48.91,0,0,0-11,19.28c-2-.19-4-.29-5.81-.29-8.28,0-14.43,2-18.81,6-8.35,7.71-10.67,19.93-10.34,28.16a45.73,45.73,0,0,0-2,23.5,11.68,11.68,0,0,0,.24,4.45,44.22,44.22,0,0,0,.09,6.71,42.23,42.23,0,0,0,4.32,15.23l-.86.5a19.82,19.82,0,0,0-6.54-2.46c-5.85-4.21-13.42-8.94-22.07-11.8a163.37,163.37,0,0,0-20-68.12c-17.13-30.52-44-52.49-77.68-63.56-6.21-2-10.13-3.93-11.67-5.62a14.29,14.29,0,0,0-6.23-4.29,12.11,12.11,0,0,0-1.31-.36,11.58,11.58,0,0,0-2.55-.28c-.31,0-.63,0-1,0a10.84,10.84,0,0,0-1.45-1.35,11.3,11.3,0,0,0-.54-1.31A11.65,11.65,0,0,0,204.53.33,11.5,11.5,0,0,0,201.78,0a11.92,11.92,0,0,0-2.22.21,37.29,37.29,0,0,0-14,5.7,32.45,32.45,0,0,0-7.28,6.9h-.55a11.62,11.62,0,0,0-9.29,4.64,21.51,21.51,0,0,0-3.18,6,29.86,29.86,0,0,0-8.86,3.84c-6,3.91-9.38,9.67-9.38,15.81a11.6,11.6,0,0,0,.89,4.46l-.18.26c-.25.34-.49.69-.79,1.12s-.55.8-.81,1.2-.5.75-.73,1.12l-.11.18-.12-.11c-.47-.47-1-.92-1.49-1.36l-.75-.6-.09-.07c-.3-.23-.61-.46-.95-.7s-.59-.41-.92-.62-.68-.43-1.07-.66-.56-.33-.87-.49c-.56-.3-1.13-.58-1.71-.83l-.4-.17a26.37,26.37,0,0,0-10.36-2.11H26.6A26.63,26.63,0,0,0,0,70.35v51.44a26.31,26.31,0,0,0,4.72,15.09,10.22,10.22,0,0,0,.59.87c.19.26.4.5.61.75s.48.58.77.91.58.64.86.93.83.81,1.24,1.18c.25.24.51.47.79.71.72.59,1.46,1.15,2.21,1.65.21.14.42.28.65.41.61.39,1.21.73,1.8,1.05l.84.41c.59.28,1.19.55,1.84.8l.91.34c.62.21,1.24.4,1.9.58l.94.24c.64.14,1.3.27,2,.38l.86.12a26.67,26.67,0,0,0,3,.18H47.84a19.81,19.81,0,0,0-1,1.73,20.25,20.25,0,0,0-2.53,11l-.11.22a17.53,17.53,0,0,0-.79,1.76c-.1.25-.19.5-.27.72a18.53,18.53,0,0,0-.58,2.15c-.05.24-.1.47-.13.68a15.93,15.93,0,0,0-.24,2.14c0,.27,0,.53,0,.76a16.86,16.86,0,0,0,.1,2.08c0,.25.06.5.09.74a17.67,17.67,0,0,0,.42,2c0,.21.11.41.18.62.17.55.36,1.09.57,1.6.07.2.16.39.25.6a20.36,20.36,0,0,0,1,1.84l.34.55a19.46,19.46,0,0,0,1.21,1.67l.4.47a18.05,18.05,0,0,0,1.5,1.53l.4.35a17,17,0,0,0,1.73,1.3l.37.24a16.62,16.62,0,0,0,1.79,1l.56.26a16.24,16.24,0,0,0,2.23.78l.58.16a18.54,18.54,0,0,0,2.44.4l.54,0H59l.33.42c.2.25.4.5.64.76s.62.69.92,1c1.13,6.63,2,14.32,3,22.38,1.15,9.53,2.33,19.39,4,29.31,0,0,0,.08,0,.11,4.16,24.4,11.58,42.61,22.65,55.64l.71.81.44.5c.45.5.89,1,1.34,1.48s.88.9,1.32,1.34L95,302c.33.34.67.68,1,1l.16.16c.72.66,1.48,1.31,2.34,2l.39.32c.78.6,1.61,1.2,2.46,1.77l.57.37c.86.54,1.72,1.05,2.59,1.52l.55.28c1,.51,1.9.93,2.72,1.27l.49.19c.83.32,1.68.62,2.57.9l.54.17c.91.26,1.85.49,2.92.71l.62.13c1,.17,1.92.31,2.89.41l.63.06c1,.09,2,.14,3.08.15h.34c.92,0,1.87,0,2.75-.11l.51,0c.94-.09,1.91-.21,3-.38l.57-.1c1-.16,1.93-.36,2.91-.6l.57-.15c1-.26,2-.54,2.93-.84l.37-.12c.92-.31,1.84-.64,2.73-1l.42-.16c.94-.38,1.9-.8,3-1.32l.41-.19c.94-.45,1.88-.93,2.84-1.44l.59-.33c20.85,11.32,46.92,13.13,76.25,14.16,15.37.54,26.72.78,36.82.78,9.54,0,18.51-.22,27.41-.67l2.4-.13,3-.18c3.22-.19,6.58-.43,9.93-.69l.14,0c9.19-.72,19.18-1.73,30.53-3.07l4.31-.51a11.64,11.64,0,0,0,9.78-8.39c.61-2.17,1.13-4.51,1.64-7.35l5-22.44h0c.34.08.67.15,1,.21l1.37.27,1,.15.27,0,1.12.15,1,.09.29,0,.79.06.34,0h2.48c.33,0,.65,0,1.05-.05h.18c.33,0,.67,0,1-.06l.25,0,.95-.11.17,0,1.05-.14.31,0,.85-.16h0c.5-.09,1-.19,1.51-.3l.62-.16a35.15,35.15,0,0,0,4.32-1.36c19.9-7.63,37.67-27.15,52.82-58,13.07-26.65,20.54-54.37,23.14-65l0-.06a69.39,69.39,0,0,0,4.11-24.5C454.69,127.61,454.6,126,454.45,124.34ZM156.18,168.28c-.13,0-.85.24-1.05.31-.43.13-.87.28-1.32.44l-.6.22c-.63.23-1.25.49-1.87.75l-.21.1c-.55.24-1.1.5-1.63.76l-.63.33-1.19.64c-.21.11-.41.24-.61.36l-.1.06c-.36.21-.72.42-1.05.63s-.45.29-.76.5l-1,.69-.7.51-1,.73-.7.57c-.32.25-.64.52-1,.8l-.67.58c-.32.29-.64.58-1,.92l-.57.54c-.33.32-.65.65-1,1,0,0-.4.41-.54.57-.38.39-.75.81-1.12,1.23l-.34.39c-.48.56-1,1.13-1.39,1.68l-.37.48c-.34.44-.68.89-1,1.36-.13.17-.48.67-.48.67-.28.4-.56.79-.82,1.19l-.52.79c-.25.39-.5.77-.75,1.18s-.35.56-.51.85-.47.78-.7,1.17-.33.59-.5.9-.45.81-.66,1.21l-.49.94c-.13.26-.27.53-.4.81L107.55,170.9c.06-.27.11-.54.15-.82a12,12,0,0,0-.09-4.14,11.29,11.29,0,0,0-.37-1.44c-.15-.47-.31-.9-.48-1.3s-.26-.58-.47-1c-.11-.21-.22-.42-.39-.72s-.28-.47-.43-.69-.21-.33-.37-.55l-.44-.62-.31-.41-.7-.86a20.66,20.66,0,0,0,0-10h22.85a26.52,26.52,0,0,0,19.88-8.95c2.84,6.55,5.72,12.33,8.07,17l.79,1.52c.16.29.35.65.53,1a20.44,20.44,0,0,0-.26,6.22,11.22,11.22,0,0,0,.64,2.79A2.53,2.53,0,0,0,156.18,168.28Z" style="fill:#fff"/><path d="M138.74,208.49c-3.5,4.34-7.58,12-10.8,20.92-9.22-16.86-18.88-27.89-25.86-38.43-.63-1-13.72-24.13-14.22-25-8.52,2.5-12.64,1.85-21.36,3.28,6.52,13.87,7.4,42.91,12.12,70.5,4.4,25.71,12.85,44,24.45,54.82,20.91,19.53,53.37-1.32,84.26-50.29C170.73,241.1,144.67,215.93,138.74,208.49Z" style="fill:#caa77a"/><path d="M187.33,244.26c-30.89,48.95-63.36,69.81-84.25,50.28C91.48,283.7,83,265.43,78.61,239.71c-4.71-27.59-5.6-56.62-12.12-70.49,2.68-.43,9.9,20.78,13.06,32.91,4.78,18.32,10.4,53,20,69.43,10.25,17.5,25,23.18,32.42,21s11.3-14.17,13.08-19.58c2.53-7.71,5.8-16.15,7-22.35,1.72-8.61,1.9-18.78-.62-19.83v0c4.22,1.81,8.19,3.45,11,4.61.26-1.25.53-2.6.79-4C171.49,237.59,180.26,242.92,187.33,244.26Z" style="fill:#3f2719;mix-blend-mode:multiply;opacity:0.230000004172325"/><path d="M127.42,228.34c3.66,6.8,10.82,21.06,13.27,30,1-8.4-5.26-28.38-10.6-34.81C129.2,225.17,127.42,228.34,127.42,228.34Z" style="fill:#3f2719;mix-blend-mode:multiply;opacity:0.230000004172325"/><path d="M131.8,220.74a43.37,43.37,0,0,0-3.86,8.67c-9.22-16.86-19.38-27.57-25.86-38.43s-14-24.76-14.22-25" style="fill:none;stroke:#2d1f04;stroke-linecap:round;stroke-linejoin:round;stroke-width:2.61999988555908px"/><path d="M67.32,169.09c7.19,23.26,9.12,57.82,11.3,70.63,3.5,20.65,10.32,41.61,24.45,54.82,11.86,11.08,27.45,9.16,44.35-3.52" style="fill:none;stroke:#2d1f04;stroke-linecap:round;stroke-linejoin:round;stroke-width:2.61999988555908px"/><path d="M140.7,70.35v51.44a15,15,0,0,1-15,15H98.36A11.15,11.15,0,0,0,87.26,149l2.22,23a12.35,12.35,0,1,1-24.58,0l2.22-23A11.15,11.15,0,0,0,56,136.76H25.78a15,15,0,0,1-15-15V70.35a15,15,0,0,1,15-15h99.94A15,15,0,0,1,140.7,70.35Z" style="fill:#fff"/><path d="M140.69,70.35v51.43a15,15,0,0,1-15,15H98.36A11.16,11.16,0,0,0,87.26,149l2.22,23a12.34,12.34,0,0,1-22.59,8,12.34,12.34,0,0,0,16.63-12.73l-2.21-23A11.15,11.15,0,0,1,92.41,132h27.35a15,15,0,0,0,15-15V65.61a14.9,14.9,0,0,0-3-9A15,15,0,0,1,140.69,70.35Z" style="fill:#3f2719;mix-blend-mode:multiply;opacity:0.230000004172325"/><path d="M67,145.86a11.32,11.32,0,0,0-11-9.1H25.77a15,15,0,0,1-12-6A14.9,14.9,0,0,0,19.82,132H57.1a11,11,0,0,1,8.65,4.12C67.77,138.68,67.73,142.53,67,145.86Z" style="fill:#3f2719;mix-blend-mode:multiply;opacity:0.230000004172325"/><path d="M140.7,70.35v51.44a15,15,0,0,1-15,15H98.36A11.15,11.15,0,0,0,87.26,149l2.22,23a12.35,12.35,0,1,1-24.58,0l2.22-23A11.15,11.15,0,0,0,56,136.76H25.78a15,15,0,0,1-15-15V70.35a15,15,0,0,1,15-15h99.94A15,15,0,0,1,140.7,70.35Z" style="fill:none;stroke:#2d1f04;stroke-linecap:round;stroke-linejoin:round;stroke-width:2.61999988555908px"/><path d="M48.55,104.37H56.8v7.79H29.89v-7.79h8.63V87.73a31.4,31.4,0,0,1-7.68,2.57V82.43Q38.3,80.81,41,76.64h7.59Z"/><path d="M72.28,112.7a11.8,11.8,0,0,1-10-5q-3.69-5-3.69-13.11,0-8.32,3.78-13.14a12.17,12.17,0,0,1,10.11-4.82,11.58,11.58,0,0,1,10.17,5.14q3.54,5.13,3.54,13.13t-3.8,13A12.23,12.23,0,0,1,72.28,112.7Zm.1-7.43c1.47,0,2.45-.94,3-2.81a31.09,31.09,0,0,0,.74-7.68q0-6.69-1-8.74A3,3,0,0,0,72.41,84c-1.37,0-2.31.9-2.83,2.71a27.48,27.48,0,0,0-.79,7.44q0,6.44.79,8.78C70.1,104.48,71,105.27,72.38,105.27Z"/><path d="M103.06,112.7a11.8,11.8,0,0,1-10-5q-3.69-5-3.69-13.11,0-8.32,3.78-13.14a12.17,12.17,0,0,1,10.11-4.82,11.6,11.6,0,0,1,10.18,5.14q3.52,5.13,3.53,13.13t-3.8,13A12.23,12.23,0,0,1,103.06,112.7Zm.1-7.43c1.47,0,2.46-.94,3-2.81a31,31,0,0,0,.75-7.68q0-6.69-1-8.74A3,3,0,0,0,103.19,84c-1.37,0-2.31.9-2.83,2.71a28,28,0,0,0-.78,7.44q0,6.44.78,8.78C100.88,104.48,101.81,105.27,103.16,105.27Z"/><path d="M60.56,176c19.52-5.42,34.31-5.43,34.82-7.59S80,151.2,65.49,150.18c-7-.49-13,7.9-9.33,13.57C49.38,169,54.43,177.7,60.56,176Z" style="fill:#b6b1ae"/><path d="M95.38,168.39c-.51,2.17-15.29,2.18-34.81,7.6-5.5,1.54-10.14-5.29-6.16-10.51,2.45,1.15,7.53.89,12.48.46S81.15,162.68,92,163.8C94.26,166,95.53,167.76,95.38,168.39Z" style="fill:#3f2719;mix-blend-mode:multiply;opacity:0.230000004172325"/><path d="M60.56,176c15.38-4.27,34.31-5.43,34.82-7.59S80,151.2,65.49,150.18c-7-.49-13,7.9-9.33,13.57C49.38,169,54.43,177.7,60.56,176Z" style="fill:none;stroke:#2d1f04;stroke-linecap:round;stroke-linejoin:round;stroke-width:2.61999988555908px"/><path d="M56.16,163.75c10.16-1.91,21.3-3.62,39.22,4.65" style="fill:none;stroke:#2d1f04;stroke-linecap:round;stroke-linejoin:round;stroke-width:2.61999988555908px"/><path d="M70.48,156.65c8.86-1.18,12.66-1.18,20.5.94,1.52-4.58,1.21-8.5-2.72-9.34A26,26,0,0,0,70.48,156.65Z" style="fill:#b6b1ae"/><path d="M70.48,156.65c8.86-1.18,12.66-1.18,20.5.94,1.52-4.58,1.21-8.5-2.72-9.34A26,26,0,0,0,70.48,156.65Z" style="fill:none;stroke:#2d1f04;stroke-linecap:round;stroke-linejoin:round;stroke-width:2.61999988555908px"/><path d="M174.27,179.33c-.47,3-1.11,6.64-1.58,9-.82.06-3.53,3-4.21,4.07-1.32,2,.59,4.26.33,5.35-.22.93-3.61,24.52-6.33,37.64-8.26-3.47-27.19-11.14-31.08-15-.28-.29-.57-.52-.8-.76-.88-.85-2.13-5.73,1.4-8.12.41-1.18.88-2.46,1.38-3.81,9.11-24.54,24.5-32.3,40.88-28.36Z" style="fill:#ffdb1f"/><path d="M342.65,263.05a191.1,191.1,0,0,1-2.87-38A355.55,355.55,0,0,1,342.65,263.05Z" style="fill:#ffdb1f"/><path d="M174.28,179.33c-.48,3-1.12,6.65-1.59,9-.82.06-3.53,3-4.21,4.08-1.31,2,.59,4.25.32,5.35-.22.93-3.6,24.5-6.32,37.62-3.45-1.44-8.76-3.62-14.06-6,2.87.63,5.86.34,6.35-1.74.64-2.78.6-5.59-1.32-6.31,2.56-.33,4.63-11.6,6.12-17.33,1.35-5.24,5.88-21.64,13-25,.56.1,1.13.22,1.69.36Z" style="fill:#3f2719;mix-blend-mode:multiply;opacity:0.230000004172325"/><path d="M342.65,263.05a191.1,191.1,0,0,1-2.87-38A355.55,355.55,0,0,1,342.65,263.05Z" style="fill:#ffdb1f"/><path d="M322.54,160.64c-6.32,3-12,6.28-20,9.94-12.53,5.72-23.84,12.26-36.88,16.08A161.75,161.75,0,0,1,230.16,192a162.56,162.56,0,0,1-28.44-.63,187.27,187.27,0,0,1-32.06-5.9c.1-.64,0-.87-.25-.8.13-2.37.23-6,.25-9.1h0c0-2.93-.06-5.59-.29-5.67a2.34,2.34,0,0,0-1.61,1.84c-2.19-4,1-7.4.68-9.68-.06-.51-1.33.16-2.15,1.94-.35-3.38.94-4.41.77-5.63-.35-2.46-1.91-5-3-7.14-12.36-24.76-35.57-72.91,1.19-106.59-2.44-3.37-7.44-1.51-7.44-1.53,0-4.94,7.91-10.17,18.71-9,.35-.53-3.63-4.39.38-9.73.69,3.94,4.28,7.69,5.15,5.73,2.36-10.7,9.13-16.63,18.91-18.53-3.06,2.67-4.37,8.44-2.86,13.56,0,0,3.08-6.66,6.68-8.21-3.22,6.25-.11,9.58,1.83,10.05,1.53.39,8.08-3.07,7.91-6.23,1.88.63,1.53,4.53,18,9.93C302.22,53.64,322.47,119.7,322.54,160.64Z" style="fill:#caa77a"/><path d="M241.05,269l-.48-.72" style="fill:#b6b1ae"/><path d="M148.49,81.29c2.32-9.46,14-16.52,21.11-21.4,8.27-5.69,38.28-11.57,32.35-20.12,10.39,1.33,17.87,10.54,26.86,10.57,9.38,0,30.4,5.62,45.86,27.55,3.11,4.4,16.78,42.55-13.18,62.59-22.89,15.31-76.37,20.14-99.8-9.45C150.72,117.17,145.38,99,148.49,81.29Z" style="fill:#ffdbaf"/><path d="M196.59,79.34c-7.91-4-14,15.85-14.66,21.58-1.65,14.58,3.26,22.1,11.81,24.67s19.35,1.18,27.69-4.16c21-13.45-1.35-48.32-15.1-42.82" style="fill:#9d7b51"/><path d="M151.18,112.31c13.95-1.13,47-17,29.79-59-9.44,1.27-18.29,4.53-29.07,14.09C144.82,83,147.05,99.48,151.18,112.31Z" style="fill:#9d7b51"/><path d="M225.38,53.29c-13.76,64.92,54.19,60.11,54.19,60.11s5.55-24.25-8.69-42.48C262.18,59.79,244,52,225.38,53.29Z" style="fill:#9d7b51"/><line x1="189.29" y1="162.53" x2="189.25" y2="169.09" style="fill:none;stroke:#9d7b51;stroke-linecap:round;stroke-linejoin:round;stroke-width:3.86999988555908px"/><line x1="182.66" y1="165.94" x2="182.62" y2="172.5" style="fill:none;stroke:#9d7b51;stroke-linecap:round;stroke-linejoin:round;stroke-width:3.86999988555908px"/><path d="M159,41.1a1.77,1.77,0,0,0-.32.21.33.33,0,0,0-.08.26" style="fill:#3f2719;opacity:0.230000004172325"/><path d="M190.93,79.79c-.12-2.66,4.71-5.08,10.8-5.41S212.85,76,213,78.62s-4.71,5.08-10.8,5.41S191.05,82.45,190.93,79.79Z" style="fill:#251707"/><path d="M169.31,183.56c.24-1.23.72-13.44.23-13.6a2.37,2.37,0,0,0-1.62,1.85c-2.18-4,1-7.41.69-9.69-.06-.51-1.34.17-2.15,1.95-.35-3.39.95-4.41.77-5.63-.35-2.46-1.91-5-3-7.15-12.38-24.75-35.59-72.91,1.18-106.59C163,41.33,158,43.2,158,43.17c0-4.93,7.92-10.17,18.72-9,.35-.53-3.63-4.4.38-9.74.69,3.94,4.28,7.69,5.15,5.73,2.36-10.69,9.14-16.63,18.91-18.53-3.06,2.68-4.37,8.44-2.87,13.56,0,.08,3.06-6.64,6.69-8.21-3.7,5.62-.29,9.53,1.65,10,1.53.39,8.26-3,8.09-6.19,1.88.63,1.54,4.54,17.95,9.93,69.88,23,89.95,89,89.95,129.89" style="fill:none;stroke:#2d1f04;stroke-linecap:round;stroke-linejoin:round;stroke-width:2.61999988555908px"/><path d="M201.29,83.62c-.5,4.46.33,10.51,2.68,16.77" style="fill:none;stroke:#2d1f04;stroke-linecap:round;stroke-linejoin:round;stroke-width:2.61999988555908px"/><path d="M215,261.5l-.56-.28" style="fill:#3f2719;opacity:0.230000004172325"/><path d="M322.54,160.64c-5.59,2.79-14.65,7.41-20,9.94,1.28-31.06-6.49-77.58-30-104.7a80.34,80.34,0,0,0-54.33-28.07c-1.5-.13-4.22-2.49-6.39-2.24a1.49,1.49,0,0,1-1.58,1.94c-1.6,0-4.85-.75-4.29-3.61-3.12.37-3.92,4.07-5.63,4.29S195.91,34.6,192,35c2.12,3-.77,5.48-3,6.35-2.62,1-4.28-.23-3.63-1.9-2.73.34-3.62,2.91-9.19,5.58a89.77,89.77,0,0,0-24.07,16.37,61.75,61.75,0,0,1,13.12-16.72c-2.44-3.37-7.44-1.51-7.44-1.53,0-4.94,7.92-10.17,18.71-9,.35-.53-3.62-4.39.38-9.73.69,3.93,4.28,7.69,5.15,5.72,2.36-10.69,9.14-16.62,18.91-18.52-3.06,2.67-4.37,8.44-2.86,13.56,0,0,3.08-6.66,6.68-8.21C201.5,23,204.66,26.55,206.6,27c1.53.39,8.09-3.07,7.91-6.23,1.88.63,1.54,4.53,18,9.92C302.23,53.64,322.47,119.7,322.54,160.64Z" style="fill:#3f2719;mix-blend-mode:multiply;opacity:0.230000004172325"/><path d="M204.59,209.24" style="fill:none;stroke:#2d1f04;stroke-linecap:round;stroke-linejoin:round;stroke-width:2.61999988555908px"/><path d="M216.07,165.91" style="fill:none;stroke:#2d1f04;stroke-linecap:round;stroke-linejoin:round;stroke-width:2.61999988555908px"/><path d="M188.3,55.37C159,56,142,78.37,142,78.37" style="fill:none;stroke:#2d1f04;stroke-linecap:round;stroke-linejoin:round;stroke-width:7.59999990463257px"/><path d="M218.86,53.18c40.48-.39,55.76,21.38,55.76,21.38" style="fill:none;stroke:#2d1f04;stroke-linecap:round;stroke-linejoin:round;stroke-width:7.59999990463257px"/><path d="M193.07,115.07c.62-3.8,1.24-10.07-1.85-15.1,4.36,1.35,12-.06,12.33-1.94,2,.93,7.88-1.25,10.47-4.75C224.14,116.91,202.48,119.64,193.07,115.07Z" style="fill:#251707"/><path d="M193,115.29a39.67,39.67,0,0,0,.56-5.73c4.88,1.18,13.54,1.13,19.32-5.15,1,.85,2,2.48,1.65,7.07C210.55,117.27,200.79,118.58,193,115.29Z" style="fill:#fff"/><path d="M212.87,104.41c-4.47,5.54-13.55,6.68-19.32,5.15-.21-2.49-.76-7-2.18-9.27,4.49.21,9.87-.65,12.33-1.94a29.48,29.48,0,0,0,8.51-3.68C213.24,97.05,213.66,102.37,212.87,104.41Z" style="fill:#fff"/><path d="M214.52,111.44a12.82,12.82,0,0,1-7.45,4.89l-.18-1a5.42,5.42,0,0,0,3.76-6c-.22-1.49-2.1-1.32-6,0,5.25-2.13,5.64-5.55,5.73-7.14s-.1-3.82-1.29-3.08a27.43,27.43,0,0,1-8.66,2.81c-2.43.43-6.62.55-6.62,1.75a24.48,24.48,0,0,0,.33,4.47c.26,1.49,2.49,2.18,5,2-.16,0-4.47,0-4.93,1.22-.28.74-1.29,3.1,4,4.06v1.28a22.1,22.1,0,0,1-5.19-1.48,41.41,41.41,0,0,0,.56-5.74c-.21-2.49-.77-7-2.19-9.27,4.49.21,9.87-.64,12.33-1.93a29.75,29.75,0,0,0,8.51-3.69c1,2.39,1.45,7.71.66,9.74C213.86,105.21,214.85,106.84,214.52,111.44Z" style="fill:#d3e5ea"/><path d="M191.19,100c8,1.43,16.73-1.58,22.86-6.7,10.35,23.85-11.52,26.37-21,21.79" style="fill:none;stroke:#2d1f04;stroke-linecap:round;stroke-linejoin:round;stroke-width:2.61999988555908px"/><path d="M178.64,87c-.95,5.36-6.63,5.58-12.79,6-7.21.43-14.95,0-14.51-8.3.33-6.12,6.67-8.56,15.93-8.72S179.84,80.24,178.64,87Z" style="fill:#fff"/><path d="M178.82,85.67c-2.74-5.63-8.28-6.55-15.29-5.36-7.41,1.29-10.82,4.2-11.83,7.89a11.09,11.09,0,0,1-.36-3.58c.33-6.11,6.68-8.56,15.93-8.73C175.91,75.75,179.37,79.68,178.82,85.67Z" style="fill:#d3e5ea"/><path d="M159.6,85.79a6.08,6.08,0,1,1,6.06,6.09A6.08,6.08,0,0,1,159.6,85.79Z" style="fill:#2d1f04"/><path d="M178.64,87c-.93,5.29-6.72,5.51-12.79,6-7.3.53-14.95.07-14.51-8.3.33-6.12,6.67-8.56,15.93-8.72S179.84,80.24,178.64,87Z" style="fill:none;stroke:#2d1f04;stroke-linecap:round;stroke-linejoin:round;stroke-width:2.61999988555908px"/><circle cx="161.18" cy="83.12" r="2.68" style="fill:#fff"/><circle cx="162.2" cy="87.69" r="1.02" style="fill:#fff"/><path d="M263.81,83c-.72,5.12-7.65,5.13-14.17,5.88-8.38,1-16.69,1.06-16.67-7.59,0-6.14,7-8.74,17.41-9.11S264.76,76.18,263.81,83Z" style="fill:#fff"/><path d="M263.93,80.61c-3.77-4.58-10.17-5.07-18-3.61-6.82,1.25-10.8,3.38-12.8,6a11.42,11.42,0,0,1-.13-1.79c0-6.14,7-8.74,17.4-9.11C259.52,71.79,263.7,75.19,263.93,80.61Z" style="fill:#d3e5ea"/><path d="M243.81,81.77a4.67,4.67,0,1,1,4.83,4.49A4.67,4.67,0,0,1,243.81,81.77Z" style="fill:#2d1f04"/><path d="M263.81,83c-.72,5.12-7.65,5.13-14.17,5.88-8.38,1-16.69,1.06-16.67-7.59,0-6.14,7-8.74,17.41-9.11S264.76,76.18,263.81,83Z" style="fill:none;stroke:#2d1f04;stroke-linecap:round;stroke-linejoin:round;stroke-width:2.78057287468482px"/><path d="M242.67,81.59A6.38,6.38,0,1,1,249,88,6.38,6.38,0,0,1,242.67,81.59Z" style="fill:#2d1f04"/><circle cx="244.33" cy="78.78" r="2.82" style="fill:#fff"/><circle cx="245.4" cy="83.58" r="1.07" style="fill:#fff"/><path d="M127.94,229.41c6.5,11.59,10.21,19.45,13.18,30.43" style="fill:none;stroke:#2d1f04;stroke-linecap:round;stroke-linejoin:round;stroke-width:2.61999988555908px"/><path d="M369.65,265.88c39.69-15.24,62.09-87,69-115.6-6.4-2.37-33.46-8.12-39.14-4.42-10.6,6.88-23.37,36-36.3,36.39-19.7.65-27.59-17-43.73-20.07-8.41,4.45-15.94,7.73-29.09,14,8.73,27.4,12.93,43.94,25.94,60.32C333.24,257.82,351.84,272.72,369.65,265.88Z" style="fill:#caa77a"/><path d="M342.65,263.23c0,.84,0,1.66,0,2.47-1.84.72-5.14,2.87-5.17,4.47-.19,11.85-.68,24.63-3.49,34.62-46,5.59-69.53,5.93-112.75,4.42-28.06-1-53.87-2.52-73.18-13.94a42.53,42.53,0,0,1-.49-6.47c.31-7.62,5.22-31.78,14.67-52.23-1.39-3.35-1.73-7.78-1.47-12.5.77-13.38,6.41-29.16,6.49-30.11.11-1.12-2.11-3.08-1.1-5.24.52-1.12,2.77-4.46,3.57-4.65.24-.07.35.16.25.8a172.67,172.67,0,0,0,32,5.89c4.56.36,9.43.61,12.58.77,3.39.18,9.63.62,15.87.37,19-.75,32.88-4,35.54-5.37,6.31-2.81,24.88-10.66,35.54-19.39a28.46,28.46,0,0,1,21.12-6.46c11.29,1.45,21.9,8.45,29.14,13.92,3.53-.71,8.72,3.05,7.19,5.58-9.6,11.9-15.53,28.18-17.88,46.57-1.51,11.84-.72,23.08,1.48,36.3Z" style="fill:#ffdb1f"/><path d="M342.69,265.7c-1.84.72-5.14,2.87-5.17,4.47-.19,11.85-.68,24.63-3.49,34.62-19.38,2.36-34.76,3.78-49.31,4.52,10.08-.62,20.29-3.48,24.78-9.47,3.82-5.1,4.86-14.69,5.17-25.42a234.39,234.39,0,0,0-.57-26c6.82,6.38,11.12,10.08,14.69,12s9-2.37,8.73-10.39a65.93,65.93,0,0,1,3.87-24.83c-.09.51-.15,1-.22,1.54-1.52,11.83-.72,23.08,1.48,36.3v.18C342.68,264.07,342.69,264.89,342.69,265.7Z" style="fill:#3f2719;mix-blend-mode:multiply;opacity:0.230000004172325"/><path d="M359.05,180.18a69.44,69.44,0,0,0-7.6,11.75c-1.2-3.47-6.8-5.9-8.44-5.6-1.43-1.49-4.63-4.37-12.35-8.93-6.39-3.78-21.43-10.27-30.93-8.8.65-.48,1.26-1,1.87-1.46a28.46,28.46,0,0,1,21.12-6.46c11.29,1.45,21.9,8.46,29.14,13.92C355.39,173.89,360.58,177.64,359.05,180.18Z" style="fill:#3f2719;mix-blend-mode:multiply;opacity:0.230000004172325"/><path d="M324.27,282.53" style="fill:none;stroke:#2d1f04;stroke-linecap:round;stroke-linejoin:round;stroke-width:2.61999988555908px"/><path d="M303.92,254.75" style="fill:none;stroke:#2d1f04;stroke-linecap:round;stroke-linejoin:round;stroke-width:2.61999988555908px"/><path d="M203.26,109.72c.46-.09.92-.22,1.38-.34C204.18,109.51,203.72,109.63,203.26,109.72Z" style="fill:#b6b1ae"/><path d="M203.26,109.72c.46-.09.92-.22,1.38-.34C204.18,109.51,203.72,109.63,203.26,109.72Z" style="fill:#fff"/><path d="M203.26,109.72c.46-.09.92-.22,1.38-.34C204.18,109.51,203.72,109.63,203.26,109.72Z" style="fill:#fff"/><path d="M438.64,150.28c-6.9,28.58-29.29,100.37-69,115.6-9.11,3.5-18.43,1.3-27.62-4.52a143,143,0,0,1-1.41-19.78c27.54,18.28,51.68-13.51,61.06-33.72,9.56-20.59,17.06-40.83,20.84-61.45A115.83,115.83,0,0,1,438.64,150.28Z" style="fill:#3f2719;mix-blend-mode:multiply;opacity:0.230000004172325"/><path d="M405.6,94.78h0c-.47-10.21,5.09-19.35,9.78-24.84,7.36-8.6,18.72-14.84,21.42-10.55,2.83,4.49-3.05,12.11-5.49,22.62-1.27,5.48-3,13.32-1.11,20,6.36,6.68,11.83,12.64,12.09,27.35s-5.79,29.69-13.68,36.89A29.36,29.36,0,0,1,418,172.66c-11.11,3.64-25.74,2.5-33.55-1.64-8.22-4.35-12.94-13-13.77-22.13a31.83,31.83,0,0,1,.41-8.71c-2.33-6.79-1.7-17.18,1.59-22.9-1-5.09.23-16,6.36-21.63,4.61-4.25,16.06-3.24,26.6-.87h0c3.64.82,7.18,1.8,10.28,2.78" style="fill:#b6b1ae"/><path d="M442.28,129.36c.27,14.84-5.79,29.69-13.68,36.9a29.31,29.31,0,0,1-10.66,6.4c-11.1,3.65-25.72,2.5-33.54-1.64a23.91,23.91,0,0,1-7-5.6c3.52-8.54,25.26.84,33.55.49,9.86-.42,17.05-13.23,20.52-24.51s1.27-28.48-3.87-33.42-5.48-12-2.78-21.71c4.48-16,12.61-22.62,11-27.79,2.24,1.53,1.74,4.37,1.61,5.17-.7,4.5-4.33,10.66-6.11,18.37-1.28,5.47-3,13.31-1.12,20C436.55,108.7,442,114.65,442.28,129.36Z" style="fill:#3f2719;mix-blend-mode:multiply;opacity:0.230000004172325"/><path d="M372.63,117.28c3.55-7.06,14.85-6.87,19.16-8a15.11,15.11,0,0,1,12.06,1.88,40.78,40.78,0,0,1,8.41,6.09C403.36,114.6,386.79,111.34,372.63,117.28Z" style="fill:#3f2719;mix-blend-mode:multiply;opacity:0.230000004172325"/><path d="M370.25,140.33c3.39-8.13,15-7.11,19.38-8s8.46-.46,11.92,2.3a47.41,47.41,0,0,1,7.74,7.77C396.63,137,384.64,135,370.25,140.33Z" style="fill:#3f2719;mix-blend-mode:multiply;opacity:0.230000004172325"/><path d="M405.6,94.78h0c-.47-10.21,4.76-19.65,9.78-24.84,7.34-7.58,18.72-14.84,21.42-10.55,2.83,4.49-1.68,9.21-5.49,22.62-1.53,5.41-3,13.32-1.11,20,6.36,6.68,11.83,12.64,12.09,27.35s-5.79,29.69-13.68,36.89A29.36,29.36,0,0,1,418,172.66c-11.11,3.64-25.74,2.5-33.55-1.64-8.22-4.35-12.94-13-13.77-22.13a31.83,31.83,0,0,1,.41-8.71c-2.33-6.79-1.7-17.18,1.59-22.9-1-5.09.23-16,6.36-21.63,4.61-4.25,16.06-3.24,26.6-.87h0c3.64.82,7.18,1.8,10.28,2.78" style="fill:none;stroke:#2d1f04;stroke-linecap:round;stroke-linejoin:round;stroke-width:2.78057287468482px"/><path d="M372.63,117.28c11.39-4.8,27.94-3.74,38.31-.29" style="fill:none;stroke:#2d1f04;stroke-linecap:round;stroke-linejoin:round;stroke-width:2.78057287468482px"/><path d="M371,140.18c10.31-5.81,28.51-2.66,37.19,2.22" style="fill:none;stroke:#2d1f04;stroke-linecap:round;stroke-linejoin:round;stroke-width:2.78057287468482px"/><path d="M342.69,263.24h0v-.18C342.66,263.12,342.68,263.17,342.69,263.24Z" style="fill:#ffdb1f"/><path d="M342.69,265.7c-1.74,1.31-5.14,2.87-5.17,4.47-.19,11.85-.68,24.62-3.49,34.62" style="fill:none;stroke:#2d1f04;stroke-linecap:round;stroke-linejoin:round;stroke-width:2.61999988555908px"/><path d="M330.89,261.86c.76,2.28,1.62,4.16,6.63,8.31-4.48-1.87-10.32-5.73-13.25-8.95" style="fill:none;stroke:#2d1f04;stroke-linecap:round;stroke-linejoin:round;stroke-width:2.61999988555908px"/><path d="M183.48,226.66c8,.22,15.38.21,22.77.49,6.07.23,8.62,4.17,7.93,7.95-.94,5.21-5.59,8.68-12.2,10.29-.35.09-.69.14-1.39.27,5.17,3.47,3.39,10,8.94,15.88-5.5-.3-10.4-.56-15.45-.81a22.1,22.1,0,0,1-4.14-11.08c-.2-2-.82-3.5-4.38-3-2.74,4.37-5.16,8.89-5.07,13.62-4.29-.14-8-.23-11.6-.25C171.45,247.3,182.15,239.61,183.48,226.66Zm9.91,6.73a38.56,38.56,0,0,1-3.53,6.72c2.51-.05,4.92,0,7.46-.15a5.83,5.83,0,0,0,4.85-3c.85-1.73.14-3.1-2-3.35S195.77,233.45,193.39,233.39Z" style="fill:#2d1f04"/><path d="M247.63,237.46l-10.28.39c.07-3.09-1.68-4.82-4.62-4.94a4.33,4.33,0,0,0-4.51,2.58c-.24,1.76.8,2.38,2.14,2.79,2.46.75,5,1.44,7.37,2.26a24.29,24.29,0,0,1,3.82,1.68c7.65,4.13,5,14-.52,18.29a14.38,14.38,0,0,1-6.92,2.71,39,39,0,0,1-14.39-1.14c-6.7-1.73-11.08-6.32-9.09-12h11.5a17,17,0,0,0,.18,2c.64,3.37,4.91,5.15,8.71,4a4.15,4.15,0,0,0,3.2-3.15,2.84,2.84,0,0,0-1.75-3.25,35,35,0,0,0-3.6-1.33,78.34,78.34,0,0,1-7.44-2.66c-4.39-2.1-5.24-5.48-3.84-9.4,1.57-4.37,4.23-8,8.73-9.41a22,22,0,0,1,13.74,0C245.17,228.53,248.07,231.94,247.63,237.46Z" style="fill:#2d1f04"/><path d="M154.55,256.22a42.66,42.66,0,0,1,10.3-8.56c4.71-3,10.55-3.25,15.78-2.5,14.14,2,39.78,10,54.22,11.92,26.38,3.48,49.27-6.25,46.56-10.19-2.28-3.3-41.69,6.59-56.54,1.45-13.18-4.57-33.81-5.38-47.36-7.63-3.25-.55-13.9-3.28-16.64-8.21a7,7,0,0,0,1.23,4A141.61,141.61,0,0,0,154.55,256.22Z" style="fill:#3f2719;mix-blend-mode:multiply;opacity:0.230000004172325"/><path d="M169.83,185.61c.12-.7,0-.94-.24-.87-.81.18-3.05,3.53-3.57,4.65-1,2.16,1.21,4.12,1.1,5.24-.12,1.28-10.39,29.71-5,42.61" style="fill:none;stroke:#2d1f04;stroke-linecap:round;stroke-linejoin:round;stroke-width:2.61999988555908px"/><path d="M167.66,194c6.43,4.24,18.7,6.51,31.74,8a200.33,200.33,0,0,0,70.67-4.37" style="fill:none;stroke:#2d1f04;stroke-linecap:round;stroke-linejoin:round;stroke-width:2.61999988555908px"/><path d="M176.86,187.83a15.59,15.59,0,0,0-1.28,5.37" style="fill:none;stroke:#2d1f04;stroke-linecap:round;stroke-linejoin:round;stroke-width:2.61999988555908px"/><path d="M188.35,190.13a13.84,13.84,0,0,0-1,5.88" style="fill:none;stroke:#2d1f04;stroke-linecap:round;stroke-linejoin:round;stroke-width:2.61999988555908px"/><polyline points="244.56 191.92 244.56 192.43 244.56 192.94 244.56 193.96 244.56 194.47" style="fill:none;stroke:#2d1f04;stroke-linecap:round;stroke-linejoin:round;stroke-width:2.61999988555908px"/><polyline points="248.39 191.92 248.39 192.69 248.39 193.45 248.39 193.96" style="fill:none;stroke:#2d1f04;stroke-linecap:round;stroke-linejoin:round;stroke-width:2.61999988555908px"/><path d="M147.91,295.23a43.86,43.86,0,0,1-.48-6.47c.31-7.63,5.21-31.79,14.67-52.23" style="fill:none;stroke:#2d1f04;stroke-linecap:round;stroke-linejoin:round;stroke-width:2.61999988555908px"/><path d="M169.83,185.53a190.93,190.93,0,0,0,52,6.82c19.07,0,36.82-2.82,44.06-5.65a157.28,157.28,0,0,0,24.5-12c4-2.38,8.62-6.07,12.83-8.75,6.66-4.25,14.15-6.3,19.33-5.27,10.69,1.78,21.67,8.74,29.32,14.21,3.73-.71,8.38,3.54,7.19,5.32-15.79,19.6-22.06,51.68-16.36,85.53" style="fill:none;stroke:#2d1f04;stroke-linecap:round;stroke-linejoin:round;stroke-width:2.61999988555908px"/><path d="M294.69,172.06c-4.75,3.25-8.93,10.78-10,17.46" style="fill:none;stroke:#2d1f04;stroke-linecap:round;stroke-linejoin:round;stroke-width:2.61999988555908px"/><path d="M380.65,168.54c-5.65,7.32-11.53,13.51-17.45,13.71a30.1,30.1,0,0,1-5.54-.32" style="fill:none;stroke:#2d1f04;stroke-linecap:round;stroke-linejoin:round;stroke-width:2.61999988555908px"/><path d="M342.62,261.74c9,5.54,18.11,7.56,27,4.14,39.69-15.24,62.09-87,69-115.6" style="fill:none;stroke:#2d1f04;stroke-linecap:round;stroke-linejoin:round;stroke-width:2.61999988555908px"/><path d="M136.89,223.93a26.42,26.42,0,0,1-5.49-3.55c-.28-.29-.57-.52-.8-.76-.88-.85-2.09-5.51,1.4-8.12.41-1.18.88-2.46,1.38-3.81,8.25-22.21,21.63-30.67,36.24-29.16" style="fill:none;stroke:#2d1f04;stroke-linecap:round;stroke-linejoin:round;stroke-width:2.61999988555908px"/><path d="M351.86,174.85c-9.33,9.67-20.68,27.18-19.81,59" style="fill:none;stroke:#2d1f04;stroke-linecap:round;stroke-linejoin:round;stroke-width:2.61999988555908px"/><path d="M343.35,185.77a7.37,7.37,0,0,1,3.93,1.62" style="fill:none;stroke:#2d1f04;stroke-linecap:round;stroke-linejoin:round;stroke-width:2.61999988555908px"/><path d="M340.43,191c1.11.16,3.19.48,4.18,1.36" style="fill:none;stroke:#2d1f04;stroke-linecap:round;stroke-linejoin:round;stroke-width:2.61999988555908px"/><path d="M333.8,210.77a19.12,19.12,0,0,1,5.47,1" style="fill:none;stroke:#2d1f04;stroke-linecap:round;stroke-linejoin:round;stroke-width:2.61999988555908px"/><path d="M132,211.5a151.13,151.13,0,0,0,24.2,10.8" style="fill:none;stroke:#2d1f04;stroke-linecap:round;stroke-linejoin:round;stroke-width:2.61999988555908px"/><path d="M139.52,215.41c-1.17.66-2,3-2.06,4.12" style="fill:none;stroke:#2d1f04;stroke-linecap:round;stroke-linejoin:round;stroke-width:2.61999988555908px"/><path d="M146.37,218.53a6.06,6.06,0,0,0-1.29,3.18" style="fill:none;stroke:#2d1f04;stroke-linecap:round;stroke-linejoin:round;stroke-width:2.61999988555908px"/><path d="M340.62,241.57h0A143,143,0,0,0,342,261.36c.19,1.44.41,2.88.66,4.34" style="fill:none;stroke:#2d1f04;stroke-linecap:round;stroke-linejoin:round;stroke-width:2.61999988555908px"/></g></g></svg>