<svg width="261" height="383" viewBox="0 0 261 383" fill="none" xmlns="http://www.w3.org/2000/svg">
<g clip-path="url(#clip0_202_349)">
<path d="M202.6 131.3C175.9 141.5 139.9 161 116.7 194.2C111.6 194.3 106.5 194.2 101.3 193.8C94.1 177.9 78.3 161.3 59.4 154.6C57.1 149.1 55.1 143.3 53.7 137.4C52.9 134.2 52.3 131 51.9 127.8C51.8 127.3 51.8 126.9 51.7 126.4C51.7 126.3 51.7 126.2 51.7 126C51.7 125.5 51.6 125.1 51.6 124.6C51.6 124.1 51.5 123.6 51.5 123.1C51.5 122.9 51.5 122.8 51.5 122.7C51.5 122.2 51.5 121.8 51.4 121.4C51.4 120.5 51.3 119.5 51.3 118.6C51.3 118.1 51.3 117.5 51.3 117C51.3 116.5 51.3 116 51.4 115.4C51.9 106.7 54.2 97.9998 59 89.8998C61.9 84.9998 65.3 81.1998 69.6 78.0998C67.2 79.2998 61.5 75.9998 62.8 72.2998C62.9 71.8998 64 73.2998 66.8 73.2998C69.5 73.2998 71.1 72.0998 71.2 71.8998C71.4 71.3998 70.3 71.2998 69.7 71.2998C62.5 70.4998 58.8 61.7998 66.8 56.7998C67 56.5998 67.9 59.9998 70 61.4998C72.8 63.4998 77 63.6998 77 62.6998C70.9 58.6998 74.1 48.5998 82.7 46.9998C82.8 46.9998 81.2 55.3998 90.9 57.1998C89.9 51.4998 91.9 46.1998 95.9 42.9998C103.7 36.7998 114 41.4998 114.2 41.5998C115.1 41.9998 109.2 44.1998 109 49.5998C108.8 53.6998 111.6 55.9998 114.3 56.5998C114.9 56.6998 116.2 56.7998 116.2 56.7998C116.2 56.7998 113.3 50.9998 119.8 49.9998C119.9 49.9998 119.1 52.4998 120.2 54.1998C121.3 55.7998 124.3 56.4998 125.7 57.0998C133.3 59.8998 140.9 61.7998 148.1 65.2998C170.9 75.9998 186.3 92.6998 195.7 112.5C198.4 118.5 200.8 124.8 202.6 131.3Z" fill="#CAA77A"/>
<path d="M225.2 379.8C220.4 380.9 209.6 380.9 197.8 380.6C196.3 377.3 194.3 374.4 191.9 371.9C191.7 371.7 191.5 371.5 191.3 371.3C188.2 368.3 184.6 365.9 180.9 364.1C180.7 364 180.4 363.9 180.1 363.7C196.6 363.2 212.1 361.7 223.6 358.6C224 359.9 224.5 361.3 224.9 362.6C226.4 367 232.7 378 225.2 379.8Z" fill="#CAA77A"/>
<path d="M130.8 377C125.5 377.2 114.9 377.5 115.6 377.5C112.8 371.3 107.8 366.4 102.8 362.9C102.4 362.7 102.1 362.4 101.7 362.2C100.8 361.3 99.9 360.2 99.1 358.9C110.3 360.7 126.4 362.4 143.7 363.3C144.7 366.1 145.8 368.9 146.9 371.4C149.3 376.8 134.1 376.9 130.8 377Z" fill="#CAA77A"/>
<path d="M105.7 211.5C105.7 211.3 105.7 211 105.7 210.7C105.7 210.1 105.7 209.5 105.6 208.9C105.6 208.9 105.6 208.9 105.6 208.8C105.4 206.2 103.2 197.7 101.4 194.2C104.2 194.3 112.4 194.3 116.7 194.2C114.2 198.3 107.6 209.2 105.5 213.6C105.6 213 105.7 212.2 105.7 211.5Z" fill="#FFDB1F"/>
<path d="M197.8 380.6C195.2 380.5 192.5 380.4 189.8 380.4C188.6 380.4 187.3 380.3 186.1 380.3C183.2 380.2 180.3 380.1 177.5 380C177.1 380 176.7 380 176.2 380C175.9 380 175.6 380 175.3 380C173.8 379.9 172.3 379.9 170.9 379.8C170.6 379.8 170.2 379.8 169.9 379.8C167.3 379.7 164.7 379.6 162.4 379.5C162.1 379.5 161.7 379.5 161.4 379.5C161 379.5 160.6 379.5 160.2 379.4C159.7 379.4 159.3 379.4 158.8 379.3C158.4 379.3 157.9 379.3 157.5 379.2C157 379.2 156.5 379.1 156.1 379.1C155.6 379.1 155.1 379 154.7 379C153.8 378.9 153 378.9 152.2 378.8C151.8 378.8 151.5 378.7 151.2 378.7H151.1C150.8 378.7 150.5 378.6 150.3 378.6C150.1 378.6 149.9 378.6 149.8 378.5C149.7 378.5 149.6 378.5 149.6 378.5C149.2 378.4 148.9 378.4 148.7 378.3C148.6 378.3 148.6 378.3 148.5 378.2C148.4 378.2 148.4 378.1 148.3 378.1L148.2 378V377.9C148.8 377.1 149.5 376.4 150.2 375.6C150.4 375.3 150.7 375.1 151 374.8C151.3 374.5 151.5 374.3 151.8 374C152.1 373.7 152.4 373.5 152.7 373.2C154.8 371.4 157.3 369.7 160.6 368.1C161.2 367.8 161.8 367.5 162.4 367.3C162.5 367.3 162.5 367.3 162.6 367.2C162.9 367.1 163.2 366.9 163.5 366.8C163.9 366.6 164.4 366.5 164.8 366.3C165.2 366.1 165.6 366 166 365.9C166.3 365.8 166.6 365.7 166.9 365.6C167.2 365.5 167.6 365.4 167.9 365.3C168.1 365.2 168.3 365.2 168.6 365.1C168.9 365 169.2 364.9 169.5 364.8C169.8 364.7 170.1 364.6 170.4 364.6C171.4 364.3 172.4 364.1 173.5 363.8C174 363.7 174.6 363.6 175.1 363.5C175.9 363.3 176.8 363.2 177.7 363C185.8 365.9 193.9 371.7 197.8 380.6Z" fill="#B6B1AE"/>
<path d="M115.6 377.5C114.9 377.5 114.2 377.5 113.5 377.5C100.3 377.7 75.3 379 72.2 379C70.9 379 69.9 379 69.5 378.6C69 378.2 69.3 377.4 70.9 375.8C71 375.7 71.1 375.6 71.2 375.5C71.3 375.4 71.4 375.3 71.5 375.2C71.7 375 72 374.8 72.2 374.5C73.3 373.5 88.8 361.6 101.7 362C107.1 365.7 112.7 370.9 115.6 377.5Z" fill="#B6B1AE"/>
<path d="M57.2 117.8C59.3 109.2 63.3 101.7 70.3 98C79.7 93 85.7 94 94.3 92.1C97.9 91.3 100.7 89.9 101.3 86.3C101.6 84.7 101 83 99.4 80.7C102.6 80.7 106.1 82 108.7 84.1C114 88.4 120.8 89.3 127 89.1C148.9 88.4 162.8 91 173.4 110.2C175.8 114.5 179.4 124.4 177 135.4C173.4 151.5 171.5 158.2 154.1 170.2C133.4 184.5 90.5 191.6 69.1 164.6C59 151.9 53.2 134 57.2 117.8Z" fill="#FFDBAF"/>
<path d="M97.2 125.2C90 121.6 84.1 139.8 84.7 145.1C86.7 163.1 113 162.1 125.1 156C142.7 147.2 121.2 118.9 108.6 123.9" fill="#9D7B51"/>
<path d="M57.2 117.9C53.9 131.3 57.7 146.4 60.7 148.6C63 150.3 75.2 143 83.3 130.8C91.9 118.1 92.5 104.7 90.2 102.5C88.9 101.2 69.7 99.4 67.1 100C63.9 100.8 59.5 108.7 57.2 117.9Z" fill="#9D7B51"/>
<path d="M124.5 101.9C122.5 139.5 167.1 159.4 172.1 152.1C175.3 147.4 181.6 127.8 174.5 112.3C170.8 104.3 163.2 95.1998 159.3 95.1998C152.4 95.0998 143.3 97.2998 135.9 98.9998C129.8 100.4 124.8 99.3998 124.5 101.9Z" fill="#9D7B51"/>
<path d="M70.8 77.2C66 80.5 62.1 84.6 59 89.9C45 113.6 52.4 141.3 63.7 163.9C64.7 165.9 66.1 168.2 66.4 170.4C66.6 171.5 65.9 173.4 66.4 174.4C66.6 174.8 67.6 173.3 67.7 173.8C68 175.9 67.7 178.3 67.5 180.3C67.4 181.1 66.5 183.2 67.1 182.6C67.3 182.4 67.8 180.7 68.6 180.9C69 181 68.6 192.2 68.4 193.3" stroke="#2D1F04" stroke-width="2.7806" stroke-miterlimit="10" stroke-linecap="round" stroke-linejoin="round"/>
<path d="M69.3 77.8999C66.9 79.0999 61.4 76.0999 62.6 72.3999C62.7 71.9999 63.8 73.3999 66.6 73.3999C69.3 73.3999 70.9 72.1999 71 71.9999C71.2 71.4999 70.1 71.3999 69.5 71.3999C62.3 70.5999 58.6 61.8999 66.6 56.8999C66.8 56.7999 67.7 60.0999 69.8 61.5999C72.6 63.5999 76.8 63.7999 76.8 62.7999C70.7 58.7999 73.9 48.6999 82.5 47.0999C82.7 47.0999 80.6 55.4999 90.3 57.2999" stroke="#2D1F04" stroke-width="2.7806" stroke-miterlimit="10" stroke-linecap="round" stroke-linejoin="round"/>
<path d="M207.9 174.2C208.4 129.6 192.2 85.8999 147.9 65.1999C140.7 61.6999 133.1 59.7999 125.5 56.9999C124.1 56.4999 121.1 55.6999 120 54.1999C118.8 52.4999 119.6 49.9999 119.6 49.9999C113.2 51.0999 116 56.8999 116 56.8999C116 56.8999 114.7 56.7999 114.1 56.6999C111.4 56.0999 108.6 53.7999 108.8 49.6999C109.1 44.2999 114.9 42.0999 114 41.6999C113.8 41.5999 103.6 36.8999 95.7 43.0999C91.4 46.4999 89.4 52.2999 90.9 58.3999" stroke="#2D1F04" stroke-width="2.7806" stroke-miterlimit="10" stroke-linecap="round" stroke-linejoin="round"/>
<path d="M160.9 116.7C159.1 126.7 133.9 127.5 134.4 114.3C134.6 109 140.7 107 149.7 107C158.7 107 162 110.9 160.9 116.7Z" fill="white"/>
<path d="M82.5 119.7C80.7 129.7 58.3 130.9 59 117.7C59.3 112.4 64.6999 110.3 72.6999 110.2C80.6999 110.1 83.5 113.9 82.5 119.7Z" fill="white"/>
<path d="M161.1 114.7C158 110.6 152.5 110 145.7 111C139.8 111.9 136.3 113.6 134.5 115.8C134.4 115.3 134.4 114.8 134.4 114.3C134.6 109 140.7 107 149.6 107C157.6 107 161.1 110 161.1 114.7Z" fill="#D3E5EA"/>
<path d="M82.6 118.6C80.2 113.8 75.5 113 69.4 114C63 115.1 60.1 117.6 59.2 120.8C58.9 119.9 58.8 118.8 58.9 117.7C59.2 112.4 64.6 110.3 72.6 110.2C80.1 110 83.1 113.4 82.6 118.6Z" fill="#D3E5EA"/>
<path d="M92.9 125.2C92.8 122.5 98.1 120 104.8 119.7C111.5 119.4 117.1 121.3 117.2 124C117.3 126.7 112 129.2 105.3 129.5C98.6 129.9 93 127.9 92.9 125.2Z" fill="#251707"/>
<path d="M116.1 103C116.1 103 123.8 102.3 132.4 100.7C143.1 98.6998 149.2 93.7998 153.9 93.9998C158.8 94.1998 172.5 100.4 172.5 100.4" stroke="#2D1F04" stroke-width="8.0658" stroke-miterlimit="10" stroke-linecap="round" stroke-linejoin="round"/>
<path d="M92.8 104.5C92.8 104.5 85.1 104.4 77.4 103.5C70.5 102.7 63.2 99.5 59.4 99.5C55.3 99.6 43.9 105.4 43.9 105.4" stroke="#2D1F04" stroke-width="8.0658" stroke-miterlimit="10" stroke-linecap="round" stroke-linejoin="round"/>
<path d="M160.9 116.7C159.1 126.7 133.9 127.5 134.4 114.3C134.6 109 140.7 107 149.7 107C158.7 107 162 110.9 160.9 116.7Z" stroke="#2D1F04" stroke-width="3.2369" stroke-miterlimit="10" stroke-linecap="round" stroke-linejoin="round"/>
<path d="M82.5 119.7C80.7 129.7 58.3 130.9 59 117.7C59.3 112.4 64.6999 110.3 72.6999 110.2C80.6999 110.1 83.5 113.9 82.5 119.7Z" stroke="#2D1F04" stroke-width="3.2369" stroke-miterlimit="10" stroke-linecap="round" stroke-linejoin="round"/>
<path d="M143.8 116.4C143.8 114.2 145.6 112.4 147.8 112.4C150 112.4 151.8 114.2 151.8 116.4C151.8 118.6 150 120.4 147.8 120.4C145.6 120.4 143.8 118.6 143.8 116.4Z" fill="#2D1F04"/>
<path d="M67.6 118.6C67.6 116.4 69.4 114.6 71.6 114.6C73.8 114.6 75.6 116.4 75.6 118.6C75.6 120.8 73.8 122.6 71.6 122.6C69.4 122.7 67.6 120.9 67.6 118.6Z" fill="#2D1F04"/>
<path d="M83.7 173.9L79.8 183.8" stroke="#9D7B51" stroke-width="4.1072" stroke-miterlimit="10" stroke-linecap="round" stroke-linejoin="round"/>
<path d="M86.2 186.7V192.7" stroke="#9D7B51" stroke-width="4.1072" stroke-miterlimit="10" stroke-linecap="round" stroke-linejoin="round"/>
<path d="M90.4 312C88.4 332.8 86.3 347.3 86.1 356.5C75.4 356.3 40.9 353.6 41.4 339.1C41.8 329 42.6 304.5 43 292.5C26.3 290.5 11.5 287 5.59998 278.4C-1.10002 268.6 -2.20002 219.9 35.6 178.7C49.1 179.3 59.4 182.4 66.7 185.6C68.4 186.3 70.1 187.2 71.9 188.1C72.3 188.3 72.6 188.5 73 188.7C73.1 188.8 73.3 188.9 73.5 189C74 189.3 74.5 189.5 74.9 189.8C75.1 189.9 75.3 190.1 75.6 190.2C81.7 212.2 85.6 227.7 88.6 246.6C91.8 266.4 91.1 289.6 90.4 312Z" fill="#D2D2D2"/>
<path d="M238.3 285.7C241.1 303.5 242.9 322.9 242.9 343.4C242.9 350.4 235.4 355.2 223.5 358.3C211.8 361.4 195.9 362.8 178.9 363.2C178.8 363.2 175.1 363.2 175 363.3C164.6 363.4 153.8 363.1 143.5 362.6C126.4 361.7 110.4 360.1 98.7 358.3C95.1 357.8 95.1 358.2 92.4 357.7C91.9 349.7 90.2 317.3 90.3 312.1C90.3 312.1 89.2 290.6 90.4 278.5C93.9 267.7 97.1 263.3 102.4 255.1C102.5 255 102.5 254.9 102.6 254.8C118.5 217.7 172 204.4 194.6 200.2C197.1 199.7 199.2 199.4 200.8 199.1L200.7 199H200.8C196.9 193.6 191.6 187.6 186.6 182.7C184.6 180.8 182.7 179 180.9 177.6C188 173.6 197.5 171.1 207.7 169.4C226.5 174.8 232.5 186.1 240.4 200.6C250.9 219.9 259.4 244.2 259.5 253C259.7 261.8 249.1 275.2 238.3 285.7Z" fill="#D2D2D2"/>
<path opacity="0.23" d="M228.8 338.9C227.8 340.7 226.2 342.2 224.2 342.9C213 347.2 201.1 349.4 188.7 349.4C183.8 349.4 179.7 345.4 179.7 340.5V302.9C181.1 303 182.6 303.1 184.1 303.1V336.5C184.1 341.4 188.1 345.4 193.1 345.4C205.5 345.4 217.3 343.2 228.6 338.9C228.6 338.9 228.7 338.9 228.8 338.9Z" fill="#3F2719"/>
<path d="M105.3 213.9C101.5 222.1 98.4 231 96.3 240.6C93.6 253 91.7 265.8 90.5 278.5C90.5 263.5 89.2 252.1 88.6 246.7C86 222.6 64 208.3 51.2 202.9C57.2 197.7 62.3 194.6 68.3 192.5C70.6 191.7 72.9 191 75.6 190.4C73.5 189 71.1 187.8 68.6 186.7C54.2 180.3 34 177.8 19.1 181C27.6 162.1 39.5 148 53.7 137.6C55.1 143.4 57.1 149.2 59.4 154.7C86.8 164.4 107.7 195 105.3 213.9Z" fill="#8C8C8C"/>
<path d="M207.9 169.1C197.6 170.8 188.2 173.3 181 177.3C187.3 182.5 195.5 191.3 201 198.8C184.3 201.5 122.1 211.8 102.6 255C98.6 263.9 94.5 274.2 89.3 294.8C90.5 282.1 93.7 253 96.4 240.7C98.5 231.1 101.6 222.2 105.4 214C126.5 168.7 171.1 143.5 202.7 131.4C200.9 124.9 198.5 118.6 195.7 112.5C228.5 119.1 250.2 144.6 259.7 165.3C244.9 165.9 225.3 166.2 207.9 169.1Z" fill="#8C8C8C"/>
<path d="M51.4 115.5C50.7 128.8 54.2 142.2 59.4 154.7" stroke="#2D1F04" stroke-width="2.7806" stroke-miterlimit="10" stroke-linecap="round" stroke-linejoin="round"/>
<path d="M202.7 131.8C199.7 121.2 195.5 111.1 189.7 101.9" stroke="#2D1F04" stroke-width="2.7806" stroke-miterlimit="10" stroke-linecap="round" stroke-linejoin="round"/>
<path d="M220.3 300.4C231.4 293.7 259.7 269.4 259.6 252.8C259.6 243.9 251 219.7 240.5 200.4C232.7 185.9 226.4 175.2 207.8 169.2" stroke="#2D1F04" stroke-width="2.7806" stroke-miterlimit="10" stroke-linecap="round" stroke-linejoin="round"/>
<path d="M213.4 267.8C213.4 274.2 200 290.5 187.4 303.2" stroke="#2D1F04" stroke-width="2.7806" stroke-miterlimit="10" stroke-linecap="round" stroke-linejoin="round"/>
<path d="M179.3 232.4C182.3 234.2 186.8 237.7 190.3 240.7C202.8 251.5 210.3 257.2 212.7 262.5C211.4 264.1 211.2 267.1 213.3 267.7" stroke="#2D1F04" stroke-width="2.7806" stroke-miterlimit="10" stroke-linecap="round" stroke-linejoin="round"/>
<path d="M177.9 101.3C177.8 101.2 177.8 101.2 177.7 101.1C176.4 100.2 175.2 99.9 169.1 99.7C153.9 99 138.7 99.5 131.7 100.3C119.6 101.7 115.5 103 113.1 103C109.4 103 106.2 103 104.5 102.9C102.8 102.8 98.5 101.6 91.3 100.8C84.1 100 67.9 98.6 55.2 99.4C42.4 100.2 40.6 100.6 40.2 100.9C39 101.7 38.7 109 39.6 109.7C40.7 110.6 43.8 110.7 44.4 111.4C45 112.1 45.3 122.1 50.6 129.6C56.3 137.7 73.8 138 87.7 132.4C90.4 131.3 92.2 130.2 93.7 128.7C95.6 126.8 96.8 124.3 98.1 120.8C99.8 116.3 101 112.6 104.4 110.7C105.7 110 107.3 109.6 109.3 109.5C116.7 109.2 117.7 123.4 120.8 127.8C126.3 135.7 148.2 137.6 156.5 134.2C171.6 128.1 172 111.4 173.5 110.6C174.9 109.8 176.7 110.3 177.6 109.7C178.5 109.4 179 102.7 177.9 101.3ZM94.9 115.2C94.6 116.2 94.3 117.2 93.9 118.1C92.8 121.2 91.4 124.2 89.1 126.4C88.1 127.3 87 128.1 85.7 128.6C84.5 129.1 83.1 129.5 81.7 129.9C72.4 132.2 58.8 131.7 55.2 126.6C53.9 124.8 52.6 121.4 51.6 117.8C51.5 117.4 51.4 117 51.3 116.5C50.8 114.2 50.3 112.1 50.5 110.2C50.7 108 51.9 106.2 55.2 104.9C57.4 104 61.6 103.7 66.5 103.6C69.4 103.6 72.4 103.7 75.5 103.8C84.7 104.3 92.7 104.6 94.9 107.6C96.1 109.6 95.8 112.3 94.9 115.2ZM167 114.5C166 118.4 163.6 122.6 160.9 125.6C159.4 127.3 157.8 128.6 156.2 129.2C155.8 129.4 155.3 129.5 154.9 129.7C144.3 133.2 128.5 129.7 124.8 124.6C123.3 122.5 122.3 119.3 121.8 116.4V116.3C121.4 113.5 121.2 111.2 122 109.4C122.6 108 123.8 106.8 125.9 106C128.4 105 134.4 104.4 141 104.1C142.9 104 144.8 103.9 146.7 103.9C155.6 103.6 164.1 103.7 166.3 106.9C167.7 108.7 167.8 111.5 167 114.5Z" fill="#5F5F5F"/>
<path d="M177.9 101.3C177 100.3 175.6 100 169.1 99.7C153.9 99 138.7 99.5 131.8 100.3C119.6 101.7 115.5 103 113.2 103C109.6 103 106.3 103 104.6 102.9C102.9 102.8 98.5999 101.7 91.3999 100.8C84.1999 100 67.9999 98.6 55.2999 99.4C42.4999 100.2 40.6999 100.7 40.2999 100.9C39.0999 101.7 38.7999 109 39.6999 109.7C40.7999 110.6 43.8999 110.7 44.4999 111.4C45.0999 112.1 45.3999 122.1 50.6999 129.6C56.3999 137.7 73.8999 138 87.7999 132.4C93.9999 129.9 95.9999 127 98.1999 120.8C100.5 114.6 102 109.8 109.4 109.6C116.8 109.3 117.9 123.6 120.9 127.9C126.4 135.8 148.3 137.7 156.6 134.3C171.7 128.2 172.1 111.5 173.6 110.7C175 109.9 176.8 110.4 177.7 109.8C178.6 109.2 179 102.7 177.9 101.3Z" stroke="#2D1F04" stroke-width="2.62" stroke-miterlimit="10" stroke-linecap="round" stroke-linejoin="round"/>
<path opacity="0.8" d="M94.9 115.2C94.6 116.2 94.3 117.2 93.9 118.1C92.8 121.2 91.4 124.2 89.1 126.4C88.1 127.3 87 128.1 85.7 128.6C84.5 129.1 83.1 129.5 81.7 129.9C72.4 132.2 58.8 131.7 55.2 126.6C53.9 124.8 52.6 121.4 51.6 117.8C51.5 117.4 51.4 117 51.3 116.5C50.8 114.2 50.3 112.1 50.5 110.2C50.7 108 51.9 106.2 55.2 104.9C57.4 104 61.6 103.7 66.5 103.6C69.4 103.6 72.4 103.7 75.5 103.8C84.7 104.3 92.7 104.6 94.9 107.6C96.1 109.6 95.8 112.3 94.9 115.2Z" fill="#3F230D"/>
<path opacity="0.8" d="M167 114.5C166 118.4 163.6 122.6 160.9 125.6C159.4 127.3 157.8 128.6 156.2 129.2C155.8 129.4 155.3 129.5 154.9 129.7C144.3 133.2 128.5 129.7 124.8 124.6C123.3 122.5 122.3 119.3 121.8 116.4V116.3C121.4 113.5 121.2 111.2 122 109.4C122.6 108 123.8 106.8 125.9 106C128.4 105 134.4 104.4 141 104.1C142.9 104 144.8 103.9 146.7 103.9C155.6 103.6 164.1 103.7 166.3 106.9C167.7 108.7 167.8 111.5 167 114.5Z" fill="#3F230D"/>
<path d="M165.1 113.7C165.1 113.8 165 114 165 114.1C164.1 117.7 161.9 121.7 159.3 124.6C159.3 124.7 159.2 124.7 159.2 124.8L124 110.1C124 110 124.1 109.9 124.1 109.8C124.6 108.7 125.5 107.9 127 107.3C128.3 106.8 131.9 106 141.3 105.6C142.3 105.5 143.4 105.5 144.6 105.5L165.1 113.7Z" fill="url(#paint0_linear_202_349)"/>
<path d="M152.5 128.7C143 131 129.7 128.1 126.7 123.8C125.6 122.3 124.7 119.9 124.2 117.3L152.5 128.7Z" fill="url(#paint1_linear_202_349)"/>
<path d="M93 114.4C93 114.5 92.9 114.7 92.9 114.8C92.6 115.8 92.2 116.9 92 117.7C91 120.3 89.8 123.3 87.6 125.4C87.5 125.5 87.4 125.6 87.3 125.6L52.4 111C52.4 110.7 52.4 110.5 52.4 110.3C52.6 108.4 53.7 107.2 56 106.2C57 105.8 59.6 105.2 66.4 105.1C67.6 105.1 68.9 105.1 70.3 105.1L93 114.4Z" fill="url(#paint2_linear_202_349)"/>
<path d="M79 128.8C70.3 130.4 59.7 129.6 57 125.8C56 124.4 54.8 121.7 53.9 118.7L79 128.8Z" fill="url(#paint3_linear_202_349)"/>
<path d="M94.9 115.2C94.6 116.2 94.3 117.2 93.9 118.1C92.8 121.2 91.4 124.2 89.1 126.4C88.1 127.3 87 128.1 85.7 128.6C84.5 129.1 83.1 129.5 81.7 129.9C72.4 132.2 58.8 131.7 55.2 126.6C53.9 124.8 52.6 121.4 51.6 117.8C51.5 117.4 51.4 117 51.3 116.5C50.8 114.2 50.3 112.1 50.5 110.2C50.7 108 51.9 106.2 55.2 104.9C57.4 104 61.6 103.7 66.5 103.6C69.4 103.6 72.4 103.7 75.5 103.8C84.7 104.3 92.7 104.6 94.9 107.6C96.1 109.6 95.8 112.3 94.9 115.2ZM167 114.5C166 118.4 163.6 122.6 160.9 125.6C159.4 127.3 157.8 128.6 156.2 129.2C155.8 129.4 155.3 129.5 154.9 129.7C144.3 133.2 128.5 129.7 124.8 124.6C123.3 122.5 122.3 119.3 121.8 116.4V116.3C121.4 113.5 121.2 111.2 122 109.4C122.6 108 123.8 106.8 125.9 106C128.4 105 134.4 104.4 141 104.1C142.9 104 144.8 103.9 146.7 103.9C155.6 103.6 164.1 103.7 166.3 106.9C167.7 108.7 167.8 111.5 167 114.5Z" stroke="#2D1F04" stroke-width="2.7806" stroke-miterlimit="10" stroke-linecap="round" stroke-linejoin="round"/>
<path d="M212.3 71.7999C212.6 89.9999 161.8 122.9 96 119.4C34.9 116.1 17 97.6999 16.8 83.2999C16.5 72.9999 25.2 58.7999 59.3 48.3999C59.4 45.0999 59.4 41.1999 59.5 36.5999C59.7 19.5999 56.9 2.29993 73 1.99993C96.1 1.59993 111.3 15.4999 123.2 15.0999C140.3 12.5999 155.1 5.59993 162.4 7.69993C172.8 10.6999 177.2 18.6999 172.4 36.1999C171.6 39.0999 171 41.5999 170.6 43.8999C195.8 50.3999 212.1 61.6999 212.3 71.7999Z" fill="#D2D2D2"/>
<path opacity="0.32" d="M212.3 71.7999C212.6 89.2999 165.6 120.5 103.4 119.6C162.9 118.6 207.2 88.7999 206.9 71.7999C206.8 63.2999 195.2 53.9999 176.5 47.2999C178.7 46.5999 180.7 47.0999 184.6 48.2999H184.7C201.7 54.8999 212.1 63.7999 212.3 71.7999Z" fill="white"/>
<path d="M171.4 64.5999C163.8 79.5999 138.2 95.8999 107.4 96.2999C74.4 96.7999 56 85.8999 55.7 70.9999C65.6 77.0999 86.8 81.0999 103.8 80.8999C120.8 80.5999 157.1 74.4999 171.4 64.5999Z" fill="#2D1F04"/>
<path opacity="0.23" d="M94.8 20.7999C94.4 23.6999 75.1 44.9999 73.5 77.4999C66.3 75.7999 60 73.5999 55.7 70.9999C58.3 62.8999 59 57.1 59.2 48.4C59.3 45.1 59.3 41.1999 59.4 36.5999C59.6 19.5999 56.8 2.29995 72.9 1.99995C80 1.89995 86.4 3.09995 92.1 4.89995C87.3 3.89995 82.3 3.49995 81.3 5.89995C79.8 9.39995 95.2 17.7999 94.8 20.7999Z" fill="#3F2719"/>
<path opacity="0.23" d="M123.1 15.0999C123 15.0999 123 15.0999 123.1 15.0999C115.7 16.1999 107.9 16.3999 100 14.7999C103.6 14.7999 109.8 14.9999 114.6 13.5999C117.6 14.4999 120.4 15.1999 123.1 15.0999Z" fill="#3F2719"/>
<path opacity="0.23" d="M204.8 85.9999C188.4 103.2 146.6 122.1 95.9 119.3C34.8 116 16.9 97.5999 16.7 83.1999C16.6 77.2999 19.5 69.9999 28.6 62.8999C23.7 68.3999 21.9 73.7999 22 78.3999C22.2 92.7999 40.1 111.2 101.2 114.5C147.2 117 185.8 101.7 204.8 85.9999Z" fill="#3F2719"/>
<path opacity="0.23" d="M171.4 64.5999C170.9 58.2999 172.5 49.0999 175.3 47.7999C178 46.4999 180 46.9999 184.6 48.3999C180 46.6999 174.8 44.9999 170.5 43.8999C168.3 55.3999 170.5 59.9999 171.4 64.5999Z" fill="#3F2719"/>
<path d="M99.9 295.1C102.993 295.1 105.5 292.593 105.5 289.5C105.5 286.407 102.993 283.9 99.9 283.9C96.8072 283.9 94.3 286.407 94.3 289.5C94.3 292.593 96.8072 295.1 99.9 295.1Z" fill="#8C8C8C"/>
<path opacity="0.23" d="M243 343.4C243 344.3 242.9 345.2 242.6 346.1C242.5 346.3 242.5 346.4 242.4 346.6C242.3 346.9 242.1 347.3 242 347.6C241.9 347.8 241.8 347.9 241.7 348.1C241.5 348.4 241.3 348.8 241.1 349.1C241 349.2 240.9 349.4 240.8 349.6C240.7 349.7 240.6 349.9 240.4 350C238.9 351.7 236.9 353.1 234.4 354.4C234.2 354.5 233.9 354.6 233.7 354.7C233.5 354.8 233.3 354.9 233.1 355C232.9 355.1 232.7 355.2 232.5 355.3C232.2 355.4 231.9 355.6 231.6 355.7C231.3 355.8 231 356 230.6 356.1C230.3 356.2 230 356.3 229.7 356.4C229.1 356.6 228.4 356.9 227.7 357.1C227.4 357.2 227 357.3 226.7 357.4C225.7 357.7 224.6 358 223.5 358.3C222.9 358.5 222.3 358.6 221.6 358.8C221.1 358.9 220.6 359 220.1 359.2C220 359.2 219.8 359.3 219.6 359.3C219 359.4 218.3 359.6 217.7 359.7H217.6C216.9 359.8 216.2 360 215.5 360.1C205 362 192.3 362.9 178.9 363.2C178.9 363.2 175 363.3 174.9 363.3C164.5 363.4 153.7 363.1 143.4 362.6C126.3 361.7 110.3 360.1 98.6 358.3C95 357.8 95 358.2 92.3 357.7C91.8 349.7 90.1 317.3 90.2 312.1C90.2 312.1 89.1 290.6 90.3 278.5C93.8 267.7 97.8 262.2 94.2 273C93 285.2 94.1 306.6 94.1 306.6C94 311.8 95.6 351.7 102.5 352.8C114.1 354.7 130.1 356.2 147.3 357.1C157.6 357.6 168.4 357.9 178.8 357.8C178.8 357.8 182.7 357.7 182.8 357.7C194.8 357.5 206.2 356.7 216.1 355.1C216.3 355.1 216.5 355 216.6 355C222.1 353.9 230.4 346.8 230.8 338.7C231.3 330.3 230.3 307 230 298.3C227.6 299.1 222.7 300 220.2 300.5C224.1 297.8 233.8 290.1 238.2 286.3C241.2 303.9 243 323.1 243 343.4Z" fill="#3F2719"/>
<path d="M86.5 285.9C84.6 287.4 82.4 289.4 77.4 289.7C76.9 286.4 75.4 278.2 76.4 272.4C77.6 277.3 79.7 285.5 86.5 285.9Z" fill="#CAA77A"/>
<path d="M106.4 258.2C106.8 258.8 106.7 261.8 104.1 263.8C96.7 269.5 94.2 284.7 86.5 285.9C79.6 285.1 77 277.1 76.5 271.9C79.9 268.7 81.6 264.8 88.2 260.5C98.5 254.1 105.3 256.6 106.4 258.2Z" fill="#B6B1AE"/>
<path d="M65.7 294.7C66.915 294.7 67.9 293.715 67.9 292.5C67.9 291.285 66.915 290.3 65.7 290.3C64.485 290.3 63.5 291.285 63.5 292.5C63.5 293.715 64.485 294.7 65.7 294.7Z" fill="#8C8C8C"/>
<path opacity="0.23" d="M259.7 252.8C259.7 261.9 249.1 275.2 238.4 285.7C238.4 285.9 238.5 286 238.5 286.2C231.7 292.6 224.8 297.9 220.4 300.5C209.7 302.5 197.5 303.4 187.4 303.3C188.6 302.1 189.8 300.8 191 299.6C200.4 300.2 210 300.3 214 299C219.1 297.3 225.2 293.2 232.2 285.6C240.1 277.1 250 262.2 251.6 255.2C254.3 243.8 239.7 220.9 229.8 201C223.5 188.2 213.8 182 201.6 182.2C198.4 182.3 195.9 182.5 194.4 182.9C204.1 192.8 210.2 204.1 213.3 214C166.4 206.4 111.3 240.7 103.7 252.6C120.6 217 172.6 204.1 194.8 200C197.3 199.5 199.4 199.2 201 198.9L200.9 198.8H201C197.1 193.4 191.8 187.4 186.8 182.5C184.8 180.6 182.9 178.8 181.1 177.4C187.1 174.1 194.6 171.8 202.9 170.1C203.7 169.9 204.6 169.8 205.4 169.6C206.2 169.4 207 169.3 207.8 169.2C207.9 169.2 208 169.3 208.1 169.3C220.5 173.4 227.4 179.7 233 187.8C235.4 191.2 237.5 195 239.8 199.1C240 199.5 240.3 200 240.5 200.4C242.9 204.8 245.2 209.5 247.3 214.2C247.8 215.3 248.3 216.4 248.7 217.4C249 218 249.3 218.7 249.5 219.3C250 220.4 250.4 221.5 250.8 222.5C250.9 222.9 251.1 223.2 251.2 223.6C251.9 225.3 252.5 227 253.2 228.6C257.2 239.1 259.6 248.1 259.7 252.8Z" fill="#3F2719"/>
<path opacity="0.23" d="M233.1 187.8C227.5 179.7 220.6 173.4 208.2 169.3C217.5 172 228.2 178.9 233.1 187.8Z" fill="#3F2719"/>
<path opacity="0.32" d="M97.3 250.1C98.2 238.1 102.2 226.4 107.5 215.7C124.4 182 156.9 150.6 203.6 134.7C198.4 140.8 193.7 145.2 188.4 149.3C157.6 171.8 115.2 181.1 97.3 250.1Z" fill="white"/>
<path opacity="0.32" d="M55.3 155.7C74 162.3 101 181.2 103.2 213C97.3 178.8 67.5 173.5 55.3 155.7Z" fill="white"/>
<path opacity="0.23" d="M60.2 353.2C50.1 350.7 41.2 346.4 41.5 339C41.9 329 42.7 304.7 43.1 292.5C47.3 292.9 50.7 293.2 53.8 293.4C53 311.2 52.4 331.3 52.2 337.6C52 346.7 53.8 350.9 60.2 353.2Z" fill="#3F2719"/>
<path opacity="0.23" d="M44.6 264V263.8C45.7 263.5 46.3 263 46.3 262.3C46.3 261.8 46 261.2 45.4 260.6C45.7 259.1 45.8 257.5 45.9 255.9C45.9 255.6 45.9 255.2 45.9 254.9C46 251.8 45.9 248.6 45.8 245.2C45.7 242.9 45.7 240.5 45.7 237.9C45.8 232.2 46.5 225.9 48.6 218.7V218.8C46.4 244.9 53.4 255.4 53.4 265.9C50.3 264.9 48.5 264.6 44.6 264Z" fill="#3F2719"/>
<path opacity="0.32" d="M151.8 14.7C144.5 17.1 129.3 21.8 121.6 22.5C113.9 23.2 110.8 31.7 128.1 29.3C145.5 26.9 159.8 22.3 163.2 19.8C166.6 17.3 163.9 10.7 151.8 14.7Z" fill="white"/>
<path opacity="0.23" d="M208.2 169.3C208.1 169.3 208 169.2 207.9 169.2C208 169.2 208.1 169.3 208.2 169.3Z" fill="#3F2719"/>
<path opacity="0.23" d="M75.7 190.4C74.1 190.8 72.5 191.2 71 191.7C69.3 192.2 67.8 192.8 66.2 193.4C55.3 181.7 39.5 188.1 37.1 189C33.6 190.3 22.3 207.6 16 229.1C9.89997 250.2 10.2 271.5 17 276.1C23.8 280.7 42.7 284.9 59.9 286.1C60 288.5 60.4 291 61 293.7C55.8 293.7 50.3 293.4 43 292.7C27.9 290.9 14.3 287.9 7.49997 280.9C7.29997 280.7 6.99997 280.4 6.79997 280.2C6.39997 279.7 5.99997 279.2 5.59997 278.7C3.09997 275 1.39997 265.9 2.19997 253.7C2.29997 253 2.29997 252.3 2.39997 251.6C2.49997 250.9 2.49997 250.3 2.59997 249.6C2.69997 248.4 2.89997 247.3 3.09997 246.1C3.19997 245.3 3.29997 244.6 3.39997 243.8C3.49997 243.4 3.49997 242.9 3.59997 242.5C3.69997 241.8 3.89997 241 3.99997 240.3C4.09997 239.9 4.19997 239.5 4.19997 239.1C4.29997 238.7 4.39997 238.3 4.49997 237.9C4.59997 237.5 4.69997 237.1 4.79997 236.7C4.99997 236 5.09997 235.2 5.29997 234.5C5.39997 234.3 5.39997 234.1 5.49997 233.9C5.79997 232.8 6.09997 231.6 6.39997 230.5C6.79997 229.2 7.19997 228 7.59997 226.7C8.19997 225 8.79997 223.2 9.39997 221.5C9.59997 221.1 9.69997 220.6 9.89997 220.2C11.9 214.9 14.4 209.5 17.5 204.1C17.7 203.7 17.9 203.4 18.1 203C18.8 201.8 19.5 200.7 20.2 199.5C20.5 199 20.8 198.6 21.1 198.1C21.4 197.6 21.7 197.2 22 196.7C22.3 196.2 22.6 195.8 22.9 195.3C23.2 194.9 23.4 194.5 23.7 194.1C23.9 193.8 24.1 193.5 24.3 193.2C24.6 192.8 24.9 192.3 25.2 191.9C25.3 191.7 25.5 191.5 25.7 191.3C26 190.8 26.4 190.4 26.7 189.9C27 189.4 27.4 189 27.8 188.5C28.1 188.1 28.5 187.6 28.8 187.2C29 187 29.2 186.7 29.4 186.5C29.8 186 30.1 185.6 30.5 185.2C30.8 184.8 31.1 184.4 31.5 184C32.7 182.6 33.8 181.3 35.1 179.9C47 180.1 59.8 182.8 69.6 187.4V187.3C70.2 187.6 70.9 187.9 71.5 188.3C71.6 188.4 71.7 188.4 71.8 188.5C71.9 188.6 72 188.6 72.1 188.7C72.2 188.8 72.4 188.9 72.6 188.9C72.6 188.9 72.7 188.9 72.7 189C73.7 189.2 74.7 189.8 75.7 190.4Z" fill="#3F2719"/>
<path opacity="0.23" d="M77.4 293.4C75.6 293.4 74 293.6 70.3 293.7C70 291.6 69.7 289.1 69.6 286.5C71.8 286.5 74.1 286.4 76.4 286.3C76.7 288.8 77 291.3 77.4 293.4Z" fill="#3F2719"/>
<path d="M88.7 246.8L83 229.2C86 234.4 88.1 240.2 88.7 246.8Z" fill="#2D1F04"/>
<path d="M125.8 245.2C130.6 245.5 135.3 245.6 140 245.9C143.8 246.1 145.2 248.5 145.5 250.8C145.9 254 144.3 256.2 141.1 257.3C140.9 257.4 140.7 257.4 140.4 257.5C144.4 259.5 145.2 263.5 147.4 266.8C144.6 266.8 142.2 266.8 139.6 266.8C138.3 264.7 136.9 262.5 135.6 260.2C134.9 259 133.9 258.1 132 258.5C132 261.3 132.2 264.1 132.4 267C130.1 267.1 128 267.1 125.7 267.2C124.9 260 124.9 252.8 125.8 245.2ZM132.2 250C132.1 251.4 132.1 252.8 132.1 254.4C133.6 254.3 135.1 254.3 136.5 254.2C137.8 254 138.5 253.3 138.5 252.2C138.5 251.1 137.9 250.2 136.5 250.1C135.2 249.9 133.7 250 132.2 250Z" fill="black"/>
<path d="M166.7 251.5C164.5 251.7 162.5 251.8 160.3 252C159.9 250.2 158.7 249.3 156.8 249.2C155.6 249.2 154.6 249.5 154.2 250.8C154.3 251.8 155.1 252.2 156 252.4C157.6 252.8 159.3 253.1 160.9 253.6C161.8 253.8 162.7 254.1 163.6 254.5C169.2 256.8 168.5 263.1 164.4 265.7C163.1 266.6 161.4 267.1 159.9 267.3C157.4 267.7 154.9 267.5 152.5 266.9C149.3 266 147.2 263.5 147.1 260C149.2 259.9 151.3 259.8 153.5 259.7C153.6 260.1 153.7 260.5 153.9 260.9C154.7 262.9 156.9 263.9 159 263.1C160 262.8 160.7 262.1 160.7 261.1C160.8 260.2 160.2 259.5 159.3 259.2C158.6 258.9 157.8 258.7 157 258.5C155.4 258 153.7 257.7 152.2 257.1C149.2 256 147.7 253.9 147.8 251.6C147.9 248.9 149.8 246.8 152.8 246C155.6 245.2 158.5 245.1 161.5 245.9C164.6 246.5 166.2 248.3 166.7 251.5Z" fill="black"/>
<path opacity="0.23" d="M225.2 379.8C220.4 380.9 209.6 380.9 197.8 380.6C196.3 377.3 194.3 374.4 191.9 371.9C191.7 371.7 191.5 371.5 191.3 371.3C188.2 368.3 184.6 365.9 180.9 364.1C180.7 364 180.4 363.9 180.1 363.7C196.6 363.2 212.1 361.7 223.6 358.6C224 359.9 224.5 361.3 224.9 362.6C226.4 367 232.7 378 225.2 379.8Z" fill="#3F2719"/>
<path opacity="0.23" d="M130.8 377C125.5 377.2 114.9 377.5 115.6 377.5C112.8 371.3 107.8 366.4 102.8 362.9C102.4 362.7 102.1 362.4 101.7 362.2C100.8 361.3 99.9 360.2 99.1 358.9C110.3 360.7 126.4 362.4 143.7 363.3C144.7 366.1 145.8 368.9 146.9 371.4C149.3 376.8 134.1 376.9 130.8 377Z" fill="#3F2719"/>
<g opacity="0.23">
<path d="M197.8 380.6C195.2 380.5 192.5 380.4 189.8 380.4C188.6 380.4 187.3 380.3 186.1 380.3C183.2 380.2 180.3 380.1 177.5 380C177.1 380 176.7 380 176.2 380C175.9 380 175.6 380 175.3 380C173.8 379.9 172.3 379.9 170.9 379.8C170.6 379.8 170.2 379.8 169.9 379.8C167.3 379.7 164.7 379.6 162.4 379.5C162.1 379.5 161.7 379.5 161.4 379.5C161 379.5 160.6 379.5 160.2 379.4C159.7 379.4 159.3 379.4 158.8 379.3C158.4 379.3 157.9 379.3 157.5 379.2C157 379.2 156.5 379.1 156.1 379.1C155.6 379.1 155.1 379 154.7 379C153.8 378.9 153 378.9 152.2 378.8C151.8 378.8 151.5 378.7 151.2 378.7H151.1C150.8 378.7 150.5 378.6 150.3 378.6C150.1 378.6 149.9 378.6 149.8 378.5C149.7 378.5 149.6 378.5 149.6 378.5C149.2 378.4 148.9 378.4 148.7 378.3C148.6 378.3 148.6 378.3 148.5 378.2C148.4 378.2 148.4 378.1 148.3 378.1L148.2 378V377.9C148.8 377.1 149.5 376.4 150.2 375.6C150.4 375.3 150.7 375.1 151 374.8C151.3 374.5 151.5 374.3 151.8 374C152.1 373.7 152.4 373.5 152.7 373.2C154.8 371.4 157.3 369.7 160.6 368.1C161.2 367.8 161.8 367.5 162.4 367.3C162.5 367.3 162.5 367.3 162.6 367.2C162.9 367.1 163.2 366.9 163.5 366.8C163.9 366.6 164.4 366.5 164.8 366.3C165.2 366.1 165.6 366 166 365.9C166.3 365.8 166.6 365.7 166.9 365.6C167.2 365.5 167.6 365.4 167.9 365.3C168.1 365.2 168.3 365.2 168.6 365.1C168.9 365 169.2 364.9 169.5 364.8C169.8 364.7 170.1 364.6 170.4 364.6C171.4 364.3 172.4 364.1 173.5 363.8C174 363.7 174.6 363.6 175.1 363.5C175.9 363.3 176.8 363.2 177.7 363C185.8 365.9 193.9 371.7 197.8 380.6Z" fill="#3F2719"/>
<path d="M115.6 377.5C114.9 377.5 114.2 377.5 113.5 377.5C100.3 377.7 75.3 379 72.2 379C70.9 379 69.9 379 69.5 378.6C69 378.2 69.3 377.4 70.9 375.8C71 375.7 71.1 375.6 71.2 375.5C71.3 375.4 71.4 375.3 71.5 375.2C71.7 375 72 374.8 72.2 374.5C73.3 373.5 88.8 361.6 101.7 362C107.1 365.7 112.7 370.9 115.6 377.5Z" fill="#3F2719"/>
<path d="M197.8 380.6C195.2 380.5 192.5 380.4 189.8 380.4C188.6 380.4 187.3 380.3 186.1 380.3C183.2 380.2 180.3 380.1 177.5 380C177.1 380 176.7 380 176.2 380C175.9 380 175.6 380 175.3 380C173.8 379.9 172.3 379.9 170.9 379.8C170.6 379.8 170.2 379.8 169.9 379.8C167.3 379.7 164.7 379.6 162.4 379.5C162.1 379.5 161.7 379.5 161.4 379.5C161 379.5 160.6 379.5 160.2 379.4C159.7 379.4 159.3 379.4 158.8 379.3C158.4 379.3 157.9 379.3 157.5 379.2C157 379.2 156.5 379.1 156.1 379.1C155.6 379.1 155.1 379 154.7 379C153.8 378.9 153 378.9 152.2 378.8C151.8 378.8 151.5 378.7 151.2 378.7H151.1C150.8 378.7 150.5 378.6 150.3 378.6C150.1 378.6 149.9 378.6 149.8 378.5C149.7 378.5 149.6 378.5 149.6 378.5C149.2 378.4 148.9 378.4 148.7 378.3C148.6 378.3 148.6 378.3 148.5 378.2C148.4 378.2 148.4 378.1 148.3 378.1L148.2 378V377.9C148.8 377.1 149.5 376.4 150.2 375.6C150.4 375.3 150.7 375.1 151 374.8C151.3 374.5 151.5 374.3 151.8 374C152.1 373.7 152.4 373.5 152.7 373.2C154.8 371.4 157.3 369.7 160.6 368.1C161.2 367.8 161.8 367.5 162.4 367.3C162.5 367.3 162.5 367.3 162.6 367.2C162.9 367.1 163.2 366.9 163.5 366.8C163.9 366.6 164.4 366.5 164.8 366.3C165.2 366.1 165.6 366 166 365.9C166.3 365.8 166.6 365.7 166.9 365.6C167.2 365.5 167.6 365.4 167.9 365.3C168.1 365.2 168.3 365.2 168.6 365.1C168.9 365 169.2 364.9 169.5 364.8C169.8 364.7 170.1 364.6 170.4 364.6C171.4 364.3 172.4 364.1 173.5 363.8C174 363.7 174.6 363.6 175.1 363.5C175.9 363.3 176.8 363.2 177.7 363C185.8 365.9 193.9 371.7 197.8 380.6Z" fill="#B6B1AE"/>
<path d="M115.6 377.5C114.9 377.5 114.2 377.5 113.5 377.5C100.3 377.7 75.3 379 72.2 379C70.9 379 69.9 379 69.5 378.6C69 378.2 69.3 377.4 70.9 375.8C71 375.7 71.1 375.6 71.2 375.5C71.3 375.4 71.4 375.3 71.5 375.2C71.7 375 72 374.8 72.2 374.5C73.3 373.5 88.8 361.6 101.7 362C107.1 365.7 112.7 370.9 115.6 377.5Z" fill="#B6B1AE"/>
</g>
<path opacity="0.23" d="M104.1 263.8C96.7 269.5 94.2 284.7 86.5 285.9C84.6 287.4 82.4 289.4 77.4 289.7C77.2 288.4 76.9 286.4 76.6 284.1C80.3 283.5 82.4 281.9 85.8 276.9C91.4 268.7 103.5 260.6 102.1 256.4C104.4 256.7 105.9 257.5 106.4 258.2C106.8 258.8 106.7 261.8 104.1 263.8Z" fill="#3F2719"/>
<path d="M101.8 362.1C107.2 365.7 112.3 370 115.2 375.8" stroke="#2D1F04" stroke-width="2.7806" stroke-miterlimit="10" stroke-linecap="round" stroke-linejoin="round"/>
<path d="M180.2 363.7C187.9 367.2 194.4 373.1 197.8 379.9" stroke="#2D1F04" stroke-width="2.7806" stroke-miterlimit="10" stroke-linecap="round" stroke-linejoin="round"/>
<path d="M71.5 377.8C76.5 373.7 98.9 365.3 107.3 366.8" stroke="#2D1F04" stroke-width="2.7806" stroke-miterlimit="10" stroke-linecap="round" stroke-linejoin="round"/>
<path d="M150.4 377.7C158.1 373.8 167.6 371 176.9 369.9C181 369.4 185 369.2 188.8 369.4" stroke="#2D1F04" stroke-width="2.7806" stroke-miterlimit="10" stroke-linecap="round" stroke-linejoin="round"/>
<path d="M105 126.4C103.7 131.2 103.4 142.4 105.3 145.8C110.4 145.8 115.5 144.1 116.5 141.6" stroke="#2D1F04" stroke-width="3.2369" stroke-miterlimit="10" stroke-linecap="round" stroke-linejoin="round"/>
<path d="M171.8 363.9C158.2 367.3 152 373 148.2 377.7C147.7 378.8 161.8 379.3 177.5 379.9C195.7 380.6 217.7 381.5 225.2 379.8C232.7 378.1 226.4 367 224.9 362.6C224.5 361.3 224 360 223.6 358.6" stroke="#2D1F04" stroke-width="2.7806" stroke-miterlimit="10" stroke-linecap="round" stroke-linejoin="round"/>
<path d="M99.2 358.8C100 360.1 100.9 361.2 101.8 362.1C88.9 361.7 73.3 373.6 72.3 374.6C67.8 378.7 69.2 379 72.3 379C75.4 379 100.4 377.7 113.6 377.5C119 377.4 125.5 377.1 130.8 376.9C134 376.8 149.3 376.7 146.9 371.2C145.9 368.7 144.7 365.9 143.7 363.1" stroke="#2D1F04" stroke-width="2.7806" stroke-miterlimit="10" stroke-linecap="round" stroke-linejoin="round"/>
<path d="M105.4 145.8C102.4 146.3 100.8 146.3 98.9 146.1" stroke="#2D1F04" stroke-width="3.2369" stroke-miterlimit="10" stroke-linecap="round" stroke-linejoin="round"/>
<path d="M101.3 193.8C106.5 194.1 111.6 194.2 116.7 194.2" stroke="#2D1F04" stroke-width="2.7806" stroke-miterlimit="10" stroke-linecap="round" stroke-linejoin="round"/>
<path d="M53.7 137.6C39.6 148 27.6 162.1 19.1 181C36.9 176.9 61.5 181.3 75.6 190.4C66 192.7 59.5 195.8 51.2 203C64 208.4 86.6 222.7 88.6 246.8" stroke="#2D1F04" stroke-width="2.7806" stroke-miterlimit="10" stroke-linecap="round" stroke-linejoin="round"/>
<path d="M195.5 112.4C228.8 118.8 250 144.5 259.6 165.4C236.2 166.4 200.2 166.8 181 177.5C187.3 182.7 195.5 191.5 201 199C184.3 201.7 120 213.6 102.6 255.2" stroke="#2D1F04" stroke-width="2.7806" stroke-miterlimit="10" stroke-linecap="round" stroke-linejoin="round"/>
<path d="M105.4 214C107.9 194.3 85.1 162 56 153.6" stroke="#2D1F04" stroke-width="2.7806" stroke-miterlimit="10" stroke-linecap="round" stroke-linejoin="round"/>
<path d="M93.3 257.8C94.1 252 95.1 246.3 96.3 240.7C110.2 177.4 165.4 145.8 202.7 131.8" stroke="#2D1F04" stroke-width="2.7806" stroke-miterlimit="10" stroke-linecap="round" stroke-linejoin="round"/>
<path d="M238.4 286.3C241.2 304.1 243 322.9 243 343.4C243 371.3 127 364.9 92.6 357.6C91.5 338.4 89.6 311.5 91.1 283.5" stroke="#2D1F04" stroke-width="2.7806" stroke-miterlimit="10" stroke-linecap="round" stroke-linejoin="round"/>
<path d="M229.9 298.2C215.1 302.5 193.5 303.9 179.7 302.9" stroke="#2D1F04" stroke-width="2.7806" stroke-miterlimit="10" stroke-linecap="round" stroke-linejoin="round"/>
<path d="M103.9 285.5C106.1 287.7 106.1 291.3 103.9 293.5C101.7 295.7 98.1 295.7 95.9 293.5" stroke="#2D1F04" stroke-width="2.7806" stroke-miterlimit="10" stroke-linecap="round" stroke-linejoin="round"/>
<path d="M180.2 240.8C184.6 241.5 187.9 240.6 194.5 244.5" stroke="#2D1F04" stroke-width="2.7806" stroke-miterlimit="10" stroke-linecap="round" stroke-linejoin="round"/>
<path d="M215.5 262.2C218.2 259.6 224.4 256.3 228.8 256.6" stroke="#2D1F04" stroke-width="2.7806" stroke-miterlimit="10" stroke-linecap="round" stroke-linejoin="round"/>
<path d="M216.2 266.8C220.2 266.5 223.1 266.7 226 267.6" stroke="#2D1F04" stroke-width="2.7806" stroke-miterlimit="10" stroke-linecap="round" stroke-linejoin="round"/>
<path d="M90.4 312C88.4 332.8 86.3 347.3 86.1 356.5C75.4 356.3 42.5 354.6 41.4 339.1C41.3 337.3 42.6 305.4 43 292.5" stroke="#2D1F04" stroke-width="2.7806" stroke-miterlimit="10" stroke-linecap="round" stroke-linejoin="round"/>
<path d="M49 217.7C43.1 236.8 47.4 249.3 45.4 260.7C47 262.1 46.5 263.5 44.6 264C56.5 266 65 269.4 72.6 271.3C74 271.7 75.2 271.9 76.4 271.9" stroke="#2D1F04" stroke-width="2.7806" stroke-miterlimit="10" stroke-linecap="round" stroke-linejoin="round"/>
<path d="M106.4 258.2C106.8 258.8 106.7 261.8 104.1 263.8C96.7 269.5 94.2 284.7 86.5 285.9C79.6 285.1 77 277.1 76.5 271.9C79.9 268.7 81.6 264.8 88.2 260.5C98.5 254.1 105.3 256.6 106.4 258.2Z" stroke="#2D1F04" stroke-width="2.7806" stroke-miterlimit="10" stroke-linecap="round" stroke-linejoin="round"/>
<path d="M60.6 293.6C54.9 293.6 49.6 293.3 41.2 292.4C26.1 290.7 11.6 287.1 5.69996 278.5C-0.900042 268.8 -2.10004 220.5 35 179.5" stroke="#2D1F04" stroke-width="2.7806" stroke-miterlimit="10" stroke-linecap="round" stroke-linejoin="round"/>
<path d="M76.5 271.9C75.6 276.1 76.2 286.4 77.4 293.1C75.6 293.1 74 293.3 70.3 293.4" stroke="#2D1F04" stroke-width="2.7806" stroke-miterlimit="10" stroke-linecap="round" stroke-linejoin="round"/>
<path d="M77.4 289.7C80.1 289.6 83.6 288.8 86.5 285.9" stroke="#2D1F04" stroke-width="2.7806" stroke-miterlimit="10" stroke-linecap="round" stroke-linejoin="round"/>
<path d="M61.5 273.9C59.4 280.2 59 287.9 62.3 298.1C64.1 298.2 70.2 298.1 71.3 298.1C70.1 294.4 68.5 284.2 70.7 275.8" stroke="#2D1F04" stroke-width="2.7806" stroke-miterlimit="10" stroke-linecap="round" stroke-linejoin="round"/>
<path d="M45.4 260.7C42.9 258.3 38.3 255.8 35.5 255.3" stroke="#2D1F04" stroke-width="2.7806" stroke-miterlimit="10" stroke-linecap="round" stroke-linejoin="round"/>
<path d="M29.6 262.4C34.7 262 40.3 263 44.6 264" stroke="#2D1F04" stroke-width="2.7806" stroke-miterlimit="10" stroke-linecap="round" stroke-linejoin="round"/>
<path d="M106.4 258.2C97.1 260.2 88.6 268.7 79.5 281.1" stroke="#2D1F04" stroke-width="2.7806" stroke-miterlimit="10" stroke-linecap="round" stroke-linejoin="round"/>
<path d="M55.7 70.9999C60.1 58.6999 59.4 41.1999 59.4 36.5999C59.6 19.5999 56.8 2.29993 72.9 1.99993C96 1.59993 111.2 15.4999 123.1 15.0999C140.2 12.5999 155 5.59993 162.3 7.69993C172.7 10.6999 177.1 18.6999 172.3 36.1999C171.5 39.0999 166.6 51.5999 171.5 64.5999" stroke="#2D1F04" stroke-width="2.7806" stroke-miterlimit="10" stroke-linecap="round" stroke-linejoin="round"/>
<path d="M170.5 43.7998C195.8 50.2998 212.1 61.6998 212.3 71.6998C212.6 89.8998 161.8 122.8 96 119.3C34.9 116 17 97.5998 16.8 83.1998C16.5 72.9998 25.2 58.7998 59.3 48.3998" stroke="#2D1F04" stroke-width="2.7806" stroke-miterlimit="10" stroke-linecap="round" stroke-linejoin="round"/>
<path d="M171.4 64.5999C163.8 79.5999 138.2 95.8999 107.4 96.2999C74.4 96.7999 56 85.8999 55.7 70.9999C65.6 77.0999 86.8 81.0999 103.8 80.8999C120.8 80.5999 157.1 74.4999 171.4 64.5999Z" stroke="#2D1F04" stroke-width="2.7806" stroke-miterlimit="10" stroke-linecap="round" stroke-linejoin="round"/>
<path d="M100 14.7C107 16.5 116.9 15.8 123.3 15" stroke="#2D1F04" stroke-width="2.7806" stroke-miterlimit="10" stroke-linecap="round" stroke-linejoin="round"/>
<path d="M44.6 264C40.3 263 34.7 262 29.6 262.4" stroke="#2D1F04" stroke-width="2.7806" stroke-miterlimit="10" stroke-linecap="round" stroke-linejoin="round"/>
</g>
<defs>
<linearGradient id="paint0_linear_202_349" x1="123.952" y1="117.505" x2="162.839" y2="113.895" gradientUnits="userSpaceOnUse">
<stop stop-color="#B3B3B3" stop-opacity="0.5"/>
<stop offset="1" stop-color="white" stop-opacity="0"/>
</linearGradient>
<linearGradient id="paint1_linear_202_349" x1="124.409" y1="124.358" x2="150.334" y2="121.951" gradientUnits="userSpaceOnUse">
<stop stop-color="#B3B3B3" stop-opacity="0.5"/>
<stop offset="1" stop-color="white" stop-opacity="0"/>
</linearGradient>
<linearGradient id="paint2_linear_202_349" x1="52.3701" y1="117.479" x2="90.7227" y2="113.918" gradientUnits="userSpaceOnUse">
<stop stop-color="#B3B3B3" stop-opacity="0.5"/>
<stop offset="1" stop-color="white" stop-opacity="0"/>
</linearGradient>
<linearGradient id="paint3_linear_202_349" x1="54.1329" y1="124.931" x2="77.0969" y2="122.799" gradientUnits="userSpaceOnUse">
<stop stop-color="#B3B3B3" stop-opacity="0.5"/>
<stop offset="1" stop-color="white" stop-opacity="0"/>
</linearGradient>
<clipPath id="clip0_202_349">
<rect width="261" height="383" fill="white"/>
</clipPath>
</defs>
</svg>
